<?xml version="1.0" encoding="UTF-8"?>
<svg id="b" data-name="Layer 2" xmlns="http://www.w3.org/2000/svg" width="514.646" height="209.747" viewBox="0 0 514.646 209.747">
  <g id="c" data-name="Layer 1">
    <g>
      <path d="M16.308,52.774c1.406-2.443,2.713-5.226,2.473-8.121-.216-2.602-1.613-4.758-3.285-6.683l-.202,1.571c2.075-1.322,3.927-3.01,4.987-5.27,1.11-2.367,1.357-4.984,1.346-7.569l-1.266.964c2.266.624,4.763,1.042,7.032.2,2.32-.861,3.909-2.771,5.17-4.825h-1.727c1.317,1.761,2.938,3.369,5.219,3.65,2.395.296,4.705-.883,6.703-2.065l-1.505-.863c-.179,1.853-.342,4.296,1.155,5.699,1.471,1.378,3.787.882,5.515.401l-1.266-.964c-.345,7.165.5,14.146,2.602,21.006l.964-1.266c-1.942.102-4.257.417-5.434,2.173-1.185,1.768-.724,4.124-.237,6.042l1.469-1.129c-1.787-.835-4.053-1.881-6.035-1.089-1.891.755-2.491,2.91-2.789,4.734l1.469-.598c-2.269-1.447-4.813-2.467-7.547-2.312-2.913.165-5.61,1.457-8.112,2.865l1.469.598c-.787-2.519-2.037-4.869-3.963-6.703-1.905-1.814-4.259-2.991-6.718-3.862-1.216-.43-1.739,1.501-.532,1.929,4.527,1.602,7.83,4.513,9.285,9.168.194.621.892.923,1.469.598,2.181-1.228,4.556-2.439,7.103-2.592,2.402-.145,4.549.771,6.538,2.039.501.32,1.366.034,1.469-.598.181-1.111.405-2.952,1.634-3.431,1.298-.506,3.12.454,4.251.982.773.361,1.696-.234,1.469-1.129-.324-1.278-.845-3.111-.072-4.338.75-1.19,2.569-1.281,3.815-1.346.627-.033,1.164-.615.964-1.266-2.054-6.703-2.867-13.475-2.531-20.474.031-.653-.664-1.132-1.266-.964-.994.276-2.832.902-3.693-.008-.909-.96-.557-3.006-.445-4.164.075-.774-.899-1.222-1.505-.863-1.533.906-3.314,1.933-5.162,1.84-1.749-.088-3.034-1.385-4.024-2.709-.443-.592-1.303-.691-1.727,0-1.021,1.664-2.305,3.348-4.228,3.995-1.866.628-3.874.218-5.716-.289-.624-.172-1.269.314-1.266.964.01,2.214-.134,4.517-1.073,6.559-.904,1.965-2.471,3.407-4.269,4.553-.571.364-.634,1.074-.202,1.571,1.375,1.583,2.612,3.414,2.719,5.574.121,2.442-1.036,4.748-2.22,6.806-.643,1.118,1.084,2.126,1.727,1.009h0Z"/>
      <path d="M30.411,54.723c-.167,7.192-1.176,14.324-3.379,21.185-1.961,6.106-4.835,11.851-8.122,17.343-1.963,3.28-4.062,6.476-6.191,9.649-.623.929.869,2.113,1.571,1.212.064-.082.183-.186.223-.28.142-.334.747.215-.562.155l-.964-.734c-.142-.351.133-.646-.012-.473-.113.135-.183.367-.263.524-.302.592-.613,1.18-.918,1.77-1.186,2.29-2.341,4.595-3.474,6.912-.483.987.728,2.048,1.571,1.212.313-.311.968-.941,1.275-.931-.163-.005-.06-.055-.004.058.145.295.244.568.321.894.616,2.592.294,5.523.149,8.149-.048.88,1.119,1.3,1.707.707,1.968-1.983,4.08-4.241,6.658-5.432,1.851-.856,3.239-.297,4.313,1.382.449.701,1.609.626,1.828-.239.684-2.706,1.339-5.963,3.109-8.215,1.063-1.352,2.322-1.267,3.748-.498.628.339,1.554-.074,1.505-.863-.127-2.05-.353-4.522.531-6.453.578-1.262,1.675-1.591,2.984-1.565.83.016,1.15-.845.863-1.505-1.468-3.376-3.237-7.294-.311-10.363.234-.245.376-.637.257-.973-1.666-4.704-1.183-9.689-.587-14.545.812-6.62,1.621-13.186,1.455-19.873-.032-1.285-2.032-1.29-2,0,.169,6.799-.681,13.466-1.494,20.198-.595,4.926-.989,9.988.699,14.753l.257-.973c-1.422,1.491-2.3,3.27-2.236,5.364.079,2.594,1.217,5.084,2.234,7.422l.863-1.505c-5.58-.108-5.778,5.785-5.516,10.018l1.505-.863c-1.957-1.055-4.104-1.277-5.793.388-2.395,2.361-3.215,6.405-4.002,9.521l1.828-.239c-1.332-2.081-3.339-3.333-5.839-2.583-3.261.978-5.957,3.895-8.273,6.229l1.707.707c.114-2.078.214-4.17.089-6.25-.071-1.188-.153-2.552-.734-3.624-1.135-2.094-3.223-.989-4.511.29l1.571,1.212c1.234-2.524,2.497-5.033,3.792-7.525.305-.587,1.376-2.009,1.077-2.748-.175-.432-.483-.712-.964-.734-.505-.023-.802.36-1.075.711l1.571,1.212c7.525-11.217,14.293-22.852,16.718-36.32.765-4.248,1.147-8.553,1.247-12.867.03-1.287-1.97-1.287-2,0h0Z"/>
      <path d="M21.008,54.38c-.598,7.691-1.931,15.368-4.797,22.561-2.63,6.6-6.609,12.525-11.397,17.747l1.671.441c-.358-1.644-1.959-1.691-2.976-.594-1.894,2.043-2.659,5.425-3.348,8.013-.312,1.173,1.174,1.623,1.828.771.35-.456.828-1.168,1.364-1.426.278-.134.223-.124.282-.092.351.192.435,1.359.484,1.691.149,1.017.161,2.057.171,3.082.009.96,1.389,1.404,1.863.505.5-.945,1.005-1.91,1.641-2.773.191-.26.691-1.051,1.06-1.044-.058-.001-.075-.013.116.145.149.123.247.381.331.543.447.863.674,1.853.91,2.789.314,1.247,2.244.719,1.929-.532-.404-1.602-1.065-4.899-3.262-4.945s-3.632,3.258-4.451,4.807l1.863.505c-.017-1.829.21-5.398-1.666-6.554-1.754-1.081-3.444,1.092-4.362,2.288l1.828.771c.565-2.122,1.176-4.319,2.257-6.246.145-.259.771-.912.796-1.117-.031.251-.718-.652-.588-.056.158.724,1.177.981,1.671.441,4.958-5.407,9.021-11.498,11.783-18.309,3.02-7.448,4.378-15.435,4.998-23.414.1-1.283-1.901-1.277-2,0h0Z"/>
      <path d="M21.01,113.834c-.587,5.923-.613,12.277,1.478,17.94.835,2.261,2.1,4.985,4.25,6.305l-.495-.863c.229,4.066.181,8.212-.842,12.178-.721,2.795-1.998,5.139-3.552,7.539-.746,1.151-1.128,2.624-1.708,3.879-.674,1.458-1.399,2.891-2.122,4.324-1.913,3.789-3.764,7.599-5.422,11.508-.3.708.045,1.454.863,1.505-.012,0-.055.009-.062-.033.012.079.121.184.171.495.118.737-.018,1.731-.18,2.54-.784,3.907-2.513,7.643-4.222,11.214l1.727,1.009c.377-.865.938-1.849,1.086-2.797.216-1.387-1.371-1.701-1.992-.576s-1.001,2.458-1.412,3.669c-.93,2.74-1.72,5.527-2.458,8.325-.283,1.073,1.283,1.793,1.828.771.769-1.443,1.543-2.895,2.446-4.261.262-.396.542-.756.844-1.12.06-.072.138-.213.131-.132.108-.061.096-.058-.034.006-.447.065-.737-.081-.869-.438-.029.038.06.571.056.743-.012.592-.091,1.186-.179,1.771-.278,1.86-.685,3.702-1.097,5.536-.259,1.152,1.168,1.667,1.828.771,1.268-1.722,2.584-3.424,4.08-4.956.864-.885,1.848-1.874,3.012-2.353,2.126-.873,2.781,1.947,3.142,3.476.227.96,1.693.946,1.929,0,.921-3.697,1.707-7.553,3.127-11.103.153-.382.315-.768.533-1.118.07-.112.163-.247.177-.268.202-.326.142.015-.02-.059-.166-.076-.264-.103-.201.02.083.164.37.563.516.854.377.752,1.656.588,1.828-.239,3.332-16.034,7.878-31.754,12.018-47.588,1.299-4.968,2.548-9.949,3.733-14.945.297-1.251-1.631-1.786-1.929-.532-3.844,16.207-8.593,32.177-12.545,48.355-1.15,4.707-2.221,9.434-3.207,14.178l1.828-.239c-.372-.742-.902-1.641-1.786-1.823-1.022-.211-1.748.589-2.208,1.394-.758,1.327-1.186,2.882-1.617,4.336-.808,2.725-1.489,5.487-2.176,8.244h1.929c-.585-2.476-1.953-5.793-5.105-5.034-1.474.355-2.742,1.438-3.813,2.455-1.87,1.777-3.446,3.861-4.972,5.933l1.828.771c.514-2.289,1.04-4.601,1.281-6.939.096-.926.286-2.418-.668-2.996-.942-.571-1.817.288-2.366.975-1.286,1.608-2.238,3.504-3.201,5.313l1.828.771c.772-2.927,1.6-5.844,2.589-8.707.265-.768.534-1.539.849-2.289.06-.142.158-.291.197-.448.088-.352.422-.304-.166.028h-1.009l.007.003-.46-.598c-.084-.297.101-.487-.053-.269-.086.122-.121.36-.172.501-.198.547-.428,1.083-.661,1.617-.505,1.156,1.164,2.185,1.727,1.009.849-1.773,8.546-16.856,2.566-17.225l.863,1.505c2.214-5.219,4.886-10.194,7.303-15.315.436-.923.85-1.856,1.239-2.8.417-1.014.887-1.799,1.476-2.717,1.093-1.703,1.957-3.553,2.579-5.479.766-2.372,1.152-4.862,1.328-7.344.106-1.494.128-2.994.093-4.491-.028-1.184.195-2.44-.744-3.253-.041-.036-.316-.259-.555-.503-.28-.286-.533-.595-.767-.919-.788-1.093-1.392-2.329-1.857-3.59-2.034-5.513-1.977-11.643-1.406-17.408.127-1.28-1.874-1.271-2,0h0Z"/>
      <path d="M36.605,51.649c2.728,19.613,6.574,39.025,10.512,58.424,3.648,17.97,7.223,35.972,9.378,54.194,1.304,11.026,2.098,22.106,2.358,33.206l1.964-.266c-.504-2.867-.987-5.742-1.58-8.591-.103-.496-.174-1.051-.371-1.522-.312-.743-1.214-1.197-1.822-.427-.683.863-.115,2.974-.025,3.929.343,3.634.756,7.262,1.16,10.89l1.964-.266c-.714-2.796-1.45-5.789-2.9-8.317-.672-1.172-1.815-2.569-3.343-2.106-1.64.497-2.363,2.661-2.854,4.096-1.225,3.579-1.784,7.406-2.329,11.134h1.929c-.52-3.479-1.04-7.056-2.178-10.399-.449-1.319-1.162-3.478-2.806-3.697-1.589-.212-2.48,1.564-2.997,2.771-1.233,2.879-1.841,6.037-2.438,9.095l1.964.266c.219-3.956.45-7.912.67-11.868.051-.909.107-1.819.14-2.73.018-.491.089-1.042-.291-1.428-.388-.394-1.021-.367-1.414,0-.612.571-.494,2.144-.577,2.886-.282,2.543-.547,5.089-.82,7.633-.119,1.109,1.808,1.382,1.964.266,1.355-9.663,2.585-19.39,2.888-29.153.197-6.361.007-12.844-1.482-19.059-.65-2.714-1.584-5.348-2.798-7.861-.56-1.159-2.285-.146-1.727,1.009,2.208,4.571,3.294,9.585,3.752,14.619.672,7.392.226,14.873-.452,22.247-.543,5.906-1.286,11.793-2.11,17.666l1.964.266c.256-2.382.506-4.766.767-7.147.069-.63.137-1.26.215-1.89.032-.257.054-.228.038-.285-.077-.269.492-.436-.208.217h-1.414c-.635-.645-.182-.879-.284-.313-.042.235-.019.51-.03.748-.044.973-.101,1.946-.156,2.918-.211,3.753-.429,7.505-.636,11.258-.061,1.112,1.747,1.379,1.964.266.52-2.662,1.068-5.356,1.977-7.917.251-.707.524-1.466.964-2.082.067-.093.316-.412.292-.368.147-.258.054.068-.005-.057-.008-.017.055.002.197.209.145.212.278.43.396.661.407.788.666,1.655.909,2.505.869,3.029,1.366,6.167,1.831,9.279.143.953,1.789.957,1.929,0,.477-3.263.999-6.549,1.895-9.728.409-1.451.953-3.05,1.872-4.083.069-.077.129-.02.006-.059.184.058.171.047.308.161.481.397.788,1.032,1.062,1.575,1.154,2.286,1.795,4.859,2.425,7.327.271,1.061,2.092.878,1.964-.266-.381-3.422-.766-6.845-1.1-10.272-.088-.902-.176-1.804-.237-2.708-.018-.267-.023-.535-.042-.802-.042-.61.091.054-.456.426l-.771.101c-.696-.139-.555-.729-.562-.381-.003.173.106.417.145.584.149.647.274,1.299.4,1.951.473,2.446.902,4.901,1.334,7.355.197,1.119,1.99.846,1.964-.266-.451-19.216-2.619-38.308-5.897-57.237-3.176-18.341-7.226-36.516-10.706-54.799-2.169-11.395-4.118-22.83-5.716-34.32-.177-1.269-2.104-.729-1.929.532h0Z"/>
      <path d="M144.938,9.29c-2.666,7.46-6.353,14.132-12.227,19.529-.359.329-.327.809-.156,1.212,2.983,7.064,4.329,14.544,5.071,22.14.056.578.415.946,1,1,7.567.696,14.456,3.987,20.905,7.824.598.356,1.592-.089,1.505-.863-.113-1.008-.224-2.027-.205-3.043.005-.268.12-.656.078-.909-.071-.425.279-.096-.144-.118-.38-.019-.069.009.056.133.212.211.479.382.696.595.767.752,1.436,1.604,2.094,2.45.583.748,1.654.057,1.707-.707.313-4.471.683-10.742,5.764-12.342.673-.212.856-.868.598-1.469-3.302-7.679-5.817-15.534-7.091-23.808-.054-.349-.394-.592-.698-.698-7.869-2.735-14.463-7.897-20.671-13.315-.966-.843-2.386.566-1.414,1.414,6.482,5.658,13.342,10.976,21.554,13.83l-.698-.698c1.301,8.455,3.92,16.442,7.292,24.285l.598-1.469c-6.118,1.927-6.846,8.765-7.232,14.271l1.707-.707c-.932-1.197-2.932-4.333-4.883-3.659-2.035.702-1.273,4.48-1.106,5.966l1.505-.863c-6.777-4.031-13.976-7.367-21.915-8.097l1,1c-.78-7.978-2.213-15.736-5.344-23.15l-.156,1.212c6.129-5.631,9.961-12.634,12.741-20.412.434-1.214-1.498-1.737-1.929-.532h0Z"/>
      <path d="M145.981,56.786v10.218c0,1.287,2,1.289,2,0v-10.218c0-1.287-2-1.289-2,0h0Z"/>
      <path d="M162.371,56.713c0,3.832,0,7.663,0,11.495,0,1.287,2,1.289,2,0,0-3.832,0-7.663,0-11.495,0-1.287-2-1.289-2,0h0Z"/>
      <path d="M141.843,54.612c-.252,5.874-.445,12.076-2.265,17.72-.867,2.688-2.427,5.607-5.607,5.671-2.017.041-4.001-.773-5.784-1.635-.616-.298-1.58.045-1.505.863.769,8.356,1.046,16.908-.54,25.191-1.336,6.977-4.091,13.503-8.129,19.346-2.501,3.62-5.421,6.925-8.517,10.044-.627.632-.148,1.674.707,1.707,3.372.131,6.791.14,10.127-.429,1.666-.284,3.686-.727,4.904-2.004,2.788-2.922-2.06-5.901-4.227-7.015l.202,1.571c5.702-4.45,10.852-9.623,14.61-15.842,3.875-6.411,6.115-13.644,7.422-20.984.916-5.145,1.42-10.357,1.736-15.571h-2c-.255,6.691.237,13.313.542,19.989.105,2.295.741,6.782-2.166,7.541-.667.174-.868.901-.598,1.469,1.353,2.842,3.297,6.609,2.748,9.892-.378,2.26-2.47,2.989-4.48,3.335-.619.107-.933.968-.598,1.469,1.869,2.793,3.969,5.905,4.385,9.326.4,3.289-1.284,6.093-3.398,8.463-.379.425-.428,1.302.202,1.571,1.743.744,2.983,1.709,2.257,3.708-1.146,3.155-4.034,5.858-6.27,8.239-.354.377-.413,1.044,0,1.414.56.501.858,1.096.958,1.783.166,1.151-.09,2.349-.392,3.454-1.186,4.346-3.521,8.417-5.717,12.313-2.018,3.58-4.154,7.093-6.321,10.585-.599.965.779,2.027,1.571,1.212,1.092-1.126,2.215-2.437,3.565-3.267.148-.091.227-.208.306-.139-.08-.069-.474-.058-.636-.183-.084-.065-.212-.244-.151-.233-.034-.006-.002.126-.01.16-.062.3-.121.597-.202.894-.565,2.057-1.457,4.044-2.297,5.999-1.53,3.562-3.147,7.087-4.759,10.612-.37.808.464,2.009,1.368,1.368,3.843-2.723,8.924-5.251,13.754-3.916,4.387,1.212,6.284,5.503,6.596,9.717.082,1.106,1.617,1.38,1.964.266.971-3.12,1.944-6.24,2.98-9.34.3-.898.604-1.796.932-2.684.175-.476.467-.939.571-1.396.013-.059.087-.109.096-.165-.072.437-1.944.131-1.659-.383.06-.109-.006.184-.02.341-.05.554-.143,1.102-.236,1.649-.425,2.483-.951,4.95-1.47,7.414-.271,1.289,1.446,1.7,1.929.532,4.122-9.971,6.613-20.397,7.936-31.088.954-7.705,1.096-15.638,2.976-23.199.444-1.785.999-3.555,1.755-5.235.37-.821.784-1.623,1.242-2.399.209-.354.438-.695.655-1.045.222-.358.435-1.073.741-1.326l-.707.293-.602-.325c.371.54,1.074.665,1.571.202,1.128-1.05,3.255,5.317,3.543,6.274.674,2.244,1.209,4.528,1.698,6.818,1.296,6.065,2.354,12.178,3.648,18.244,1.019,4.775,2.146,9.526,3.377,14.251l1.929-.532c-.168-.529-.345-1.058-.491-1.594-.035-.13-.049-.338-.116-.454-.07-.122.096.198.018.143.392.273-1.638,1.178-1.765.53.054.275.374.653.503.901.316.609.619,1.224.923,1.839,2.963,5.975,5.952,11.935,9.033,17.85.444.853,1.947.488,1.863-.505-.237-2.81-.475-8.205,3.557-8.278,1.98-.036,3.95.885,5.656,1.796,2.866,1.53,5.492,3.49,8.006,5.535.691.562,2.048.065,1.671-.973-1.371-3.78-2.759-7.556-4.064-11.36-.771-2.249-1.57-4.52-2.076-6.847-.126-.579-.263-1.189-.223-1.786.018-.277.018-.042.021-.173.005-.191.126-.058-.002-.025.158-.042-.334.222-.338.168,0-.008.138-.005.358.089.004.002.431.226.596.325.758.457,1.45,1.021,2.129,1.586.797.663,2.311-.238,1.571-1.212-3.374-4.439-7.078-8.923-9.692-13.877-.251-.476-.49-.955-.639-1.474-.143-.495.044-.364-.174-.112-.206.238-.31.09-.176.147.064.027.121.003.396.084.545.162,1.054.402,1.561.656,1.03.516,1.959-.701,1.212-1.571-1.843-2.145-3.679-4.306-5.358-6.583-1.05-1.424-2.133-2.92-2.833-4.557-.3-.702-.644-1.731-.319-2.354.393-.752,1.514-1.012,2.326-1.187.699-.151,1.011-1.196.441-1.671-1.167-.973-2.323-1.972-3.353-3.091-.562-.61-1.332-1.407-1.512-2.253-.287-1.352,2.071-1.626,2.963-1.796.852-.162.962-1.433.239-1.828-2.011-1.097-4.536-2.248-5.997-4.09-1.009-1.274-.174-2.313.844-3.281.427-.407.387-1.308-.202-1.571-2.61-1.163-5.116-2.807-5.912-5.71-.906-3.304.128-6.984,1.036-10.169.091-.319.007-.751-.257-.973-2.296-1.929-3.598-4.606-4.423-7.445-1.396-4.802-1.712-9.904-1.912-14.875-.168-4.176-.177-8.357-.133-12.535h-2c.367,2.97.753,5.977,1.566,8.864.461,1.638,1.078,3.526,2.412,4.675,3.015,2.596,6.625-1.417,8.453-3.547l-1.707-.707c.595,6.531,1.668,13.175,4.553,19.128,2.406,4.965,6.176,9.011,10.802,11.987,2.997,1.927,6.26,3.398,9.583,4.664l-.239-1.828c-1.257.586-8.089,3.227-6.003,5.68.764.898,2.363.862,3.424.872,2.708.024,5.429-.349,8.107-.707l-.266-1.964c-1.269.305-2.623.654-3.941.547-.295-.024-.469-.181-.222.149.17.227-.172.153.047.009,0,0,.168-.258.225-.334.784-1.035,1.969-1.841,3.02-2.571,1.925-1.337,3.959-2.512,6.012-3.638.836-.459.5-1.946-.505-1.863-2.372.195-4.765.372-7.146.263-1.008-.046-2.619-.05-3.385-.758-.133-.123-.14-.186-.077-.46.115-.498.449-.96.748-1.363,1.239-1.672,2.918-3.057,4.496-4.392.653-.553.131-1.757-.707-1.707-3.608.217-9.906.603-11.369-3.75-.672-1.999-.322-4.287.106-6.295.703-3.297,1.874-6.489,3.091-9.625.246-.634-.374-1.245-.964-1.266-5.186-.186-10.333-1.217-15.05-3.426-5.425-2.541-10.079-6.394-14.082-10.814-2.873-3.173-5.406-6.627-7.745-10.207-.701-1.073-2.434-.072-1.727,1.009,7.074,10.828,16.409,20.914,29.371,24.185,3.018.762,6.125,1.141,9.232,1.253l-.964-1.266c-2.43,6.262-7.669,18.918,2.069,21.669,2.586.731,5.375.693,8.032.533l-.707-1.707c-1.803,1.526-3.722,3.13-5.036,5.121-.688,1.042-1.192,2.412-.432,3.555.831,1.249,2.611,1.49,3.975,1.631,2.737.283,5.539.043,8.271-.182l-.505-1.863c-2.496,1.369-4.982,2.805-7.246,4.539-1.07.82-2.544,1.875-2.946,3.248-1.025,3.503,5.18,2.045,6.592,1.706,1.068-.257.869-2.116-.266-1.964-2.257.302-4.526.584-6.804.68-.719.03-1.446.049-2.164-.003-.257-.019-.979-.19-1.042-.168-.1.036-.022-.096.095.235.124.351-.132.242.038.24.059,0,.641-.557.818-.68,1.408-.971,2.995-1.703,4.54-2.423.86-.401.48-1.554-.239-1.828-5.228-1.993-10.355-4.616-14.295-8.668-3.734-3.842-5.993-8.73-7.332-13.869-.965-3.705-1.496-7.505-1.843-11.313-.071-.779-1.091-1.425-1.707-.707-1.052,1.226-4.101,5.216-5.948,3.24-.979-1.047-1.377-2.694-1.724-4.037-.659-2.548-1.024-5.172-1.346-7.78-.153-1.24-1.986-1.325-2,0-.072,6.893-.082,13.85.746,20.705.483,3.997,1.203,8.156,3.181,11.72.806,1.452,1.854,2.775,3.127,3.844l-.257-.973c-1.026,3.598-2.096,7.753-.97,11.461.998,3.287,3.746,5.331,6.765,6.677l-.202-1.571c-1.456,1.386-2.56,3.237-1.489,5.203,1.366,2.508,4.672,4.013,7.047,5.309l.239-1.828c-1.866.355-4.536,1.137-4.479,3.499.027,1.109.696,2.119,1.353,2.959,1.19,1.52,2.669,2.794,4.145,4.024l.441-1.671c-2.762.596-4.567,2.429-3.644,5.358.59,1.872,1.75,3.565,2.884,5.143,1.879,2.615,3.963,5.082,6.06,7.523l1.212-1.571c-1.003-.502-2.463-1.326-3.633-.915-1.268.445-1.131,1.861-.748,2.884.735,1.957,1.989,3.739,3.153,5.458,2.287,3.378,4.748,6.638,7.216,9.885l1.571-1.212c-1.169-.972-4.933-4.34-6.016-1.466-.396,1.051-.066,2.355.171,3.404.501,2.212,1.25,4.372,1.983,6.514,1.32,3.857,2.727,7.685,4.117,11.517l1.671-.973c-2.842-2.312-5.812-4.569-9.104-6.206-1.985-.987-4.265-1.903-6.527-1.675-4.986.502-5.329,6.358-5.002,10.243l1.863-.505c-2.918-5.602-5.763-11.24-8.563-16.901-.544-1.1-1.049-2.238-1.665-3.301-.129-.223-.254-.486-.448-.661-.622-.559-1.588-.257-1.725.585-.13.801.407,1.869.641,2.604.388,1.221,2.255.721,1.929-.532-2.152-8.256-3.911-16.593-5.527-24.968-1.054-5.463-2.002-11.015-3.821-16.288-.773-2.241-3.187-8.075-6.261-5.213l1.571.202c-1.393-2.027-2.653.961-3.286,1.981-.89,1.435-1.612,2.967-2.215,4.543-1.31,3.42-1.967,7.049-2.454,10.666-1.237,9.2-1.665,18.46-3.54,27.576-1.412,6.862-3.481,13.562-6.157,20.035l1.929.532c.58-2.757,1.197-5.521,1.616-8.309.123-.823.462-3.792-1.428-2.722-1.043.591-1.446,2.818-1.792,3.817-1.226,3.545-2.332,7.132-3.446,10.713l1.964.266c-.366-4.94-2.568-9.82-7.565-11.494-5.449-1.825-11.395.849-15.794,3.966l1.368,1.368c2.426-5.304,5.115-10.623,6.971-16.164.305-.911.806-2.173.466-3.14-.394-1.12-1.564-1.044-2.424-.541-1.507.881-2.77,2.343-3.97,3.58l1.571,1.212c3.58-5.767,7.197-11.594,10.065-17.758,1.338-2.876,2.985-6.331,2.638-9.604-.13-1.223-.615-2.367-1.543-3.197v1.414c1.662-1.77,3.299-3.573,4.743-5.529.92-1.247,1.851-2.642,2.217-4.171.63-2.634-1.059-4.411-3.35-5.389l.202,1.571c2.376-2.663,4.3-5.849,4.017-9.546-.301-3.935-2.553-7.473-4.691-10.667l-.598,1.469c2.625-.453,5.21-1.718,5.838-4.535.867-3.895-1.293-8.23-2.911-11.63l-.598,1.469c3.689-.963,3.763-5.117,3.68-8.25-.187-7.089-.858-14.102-.587-21.208.049-1.292-1.923-1.277-2,0-.51,8.435-1.484,16.949-4.114,25.017-2.124,6.515-5.479,12.53-10.042,17.653-2.727,3.062-5.797,5.793-9.026,8.313-.499.389-.321,1.301.202,1.571,1.295.666,2.873,1.446,3.732,2.677.473.678.413,1.002-.244,1.484-1.248.915-3.109,1.148-4.593,1.337-2.875.367-5.801.335-8.691.223l.707,1.707c5.399-5.441,10.259-11.525,13.445-18.542,3.112-6.853,4.521-14.263,4.846-21.755.227-5.237-.039-10.483-.519-15.698l-1.505.863c3.176,1.536,7.328,3.003,10.539.739,3.532-2.491,4.443-7.671,5.047-11.63.635-4.167.899-8.384,1.08-12.592.055-1.287-1.945-1.284-2,0h0Z"/>
      <path d="M67.234,92.517c2.036-3.975,3.151-8.236,3.163-12.712.017-5.909-1.482-11.77-3.124-17.403l-1.828.771c.565.778,3.324,5.568,4.778,3.684.527-.682.081-1.718-.17-2.424-.643-1.805-1.439-3.562-2.208-5.316l-1.727,1.009c.968,1.366,1.94,2.796,3.119,3.993.587.597,1.423,1.34,2.324.971.851-.348.924-1.335.858-2.13-.141-1.696-.663-3.375-1.132-5.001l-1.469,1.129c5.369,2.74,11.183,4.54,17.258,3.724,6.852-.92,12.987-4.667,18.516-8.605l-1.368-1.368c-.879,1.774-1.793,3.555-2.496,5.409-.301.794-.698,2.114.442,2.457.902.271,1.64-.702,2.142-1.292,1.409-1.656,2.668-3.448,3.937-5.211l-1.727-1.009c-1.045,1.887-2.114,3.771-3.053,5.715-.341.706-1.078,1.868-.469,2.621.775.957,1.743.02,2.297-.616,1.268-1.458,2.397-3.051,3.545-4.602l-1.828-.771c-3.104,8.423-7.666,20.394.263,27.578l.202-1.571c-1.276.672-4.798,2.056-4.763,3.948.037,1.959,3.15,1.547,4.345,1.449l-.266-1.964c-1.341.384-2.683.761-4.024,1.144-.415.118-1.083.2-1.438.472-.597.458-.682,1.284,0,1.727.711.462,2.363-.167,3.081-.303,1.275-.241.72-2.129-.532-1.929-11.64,1.862-23.295,3.609-34.975,5.201-1.106.151-.856,2.073.266,1.964.466-.045.932-.096,1.399-.131.567-.042.507.159.068-.157v-1.727c.322-.179.057-.02-.057-.02-.227,0-.489.098-.712.14-.81.154-1.622.299-2.434.447-1.108.202-.854,2.017.266,1.964.483-.023.973-.058,1.457-.034.111.005.279.039.387.017.035,0,.069.006.101.017.523.145.447-.332-.23-1.429-.186-.003-.618.298-.8.369-.619.242-1.257.439-1.891.64-.496.158-.872.699-.698,1.23,1.19,3.637,1.026,7.394.176,11.089-1.393,6.056-4.048,11.81-6.693,17.401-.446.942.823,2.174,1.571,1.212.889-1.144,1.774-2.295,2.718-3.395.204-.238.53-.484.681-.754.119-.214.142-.191.146-.149l-1.321-1.002c-.011.051-.025.101-.041.151-.146.135-.247.58-.33.752-.229.473-.474.938-.72,1.402-.851,1.601-1.743,3.18-2.635,4.759-.537.951.828,2.119,1.571,1.212.995-1.216,2-2.431,3.09-3.565.368-.383.744-.783,1.165-1.111.081-.063.247-.145.306-.22.198-.252.114-.006.099-.079.039.2-.868-.349-.717-.493-.041.039-.001.329-.016.386-.102.394-.174.793-.287,1.185-.431,1.493-1.016,2.943-1.598,4.383-.333.823.778,1.566,1.469,1.129,4.986-3.147,10.553-6.116,16.584-6.29,5.643-.163,10.77,2.309,15.382,5.339.757.497,1.671-.322,1.469-1.129-.339-1.357-.677-2.719-.906-4.099-.064-.386-.126-.777-.139-1.169-.002-.072.034-.382.003-.448-.008.056-.005.055.008-.004.111-.363-.181-.217-.878.436-.016.169-.165-.423-.019.027.03.091.204.209.269.28.265.292.492.617.717.94.827,1.19,1.564,2.443,2.295,3.694.553.946,2.234.321,1.828-.771-.539-1.45-1.078-2.901-1.569-4.367-.159-.474-.316-.95-.452-1.432-.073-.258-.084-.716-.225-.934l.012.065c.007-.558-.424-.345-1.292.639-.006-.076-.017-.063.063.1.129.262.4.528.566.77.713,1.043,1.364,2.129,2.016,3.21.627,1.039,1.978.296,1.828-.771-1.034-7.364-1.67-14.902-.715-22.31.832-6.458,3.045-12.572,6.024-18.335.59-1.142-1.135-2.154-1.727-1.009-3.097,5.991-5.366,12.303-6.253,19.008-1.02,7.71-.334,15.514.743,23.178l1.828-.771c-.498-.825-3.062-6.336-4.746-4.666-.632.627-.228,1.736-.019,2.459.558,1.93,1.291,3.816,1.991,5.697l1.828-.771c-.931-1.593-1.859-3.23-3.02-4.672-.51-.634-1.236-1.455-2.15-1.182-.947.282-.996,1.405-.934,2.216.144,1.865.646,3.717,1.098,5.524l1.469-1.129c-4.896-3.217-10.409-5.784-16.391-5.612-6.394.184-12.297,3.221-17.593,6.563l1.469,1.129c.698-1.725,1.475-3.504,1.841-5.337.175-.879.308-2.101-.696-2.535-.928-.401-1.845.384-2.496.957-1.502,1.322-2.771,2.942-4.034,4.484l1.571,1.212c1.08-1.912,2.18-3.821,3.168-5.783.352-.699,1.128-1.86.663-2.666-1.282-2.222-4.969,3.619-5.469,4.261l1.571,1.212c2.753-5.82,5.554-11.833,6.956-18.152.876-3.946,1.032-8.001-.237-11.88l-.698,1.23c.992-.315,3.878-.823,3.888-2.304.011-1.592-2.486-1.249-3.444-1.204l.266,1.964c1.098-.2,2.671-.208,3.681-.769.706-.393.583-1.308,0-1.727-.565-.406-1.884-.043-2.476.014l.266,1.964c11.68-1.592,23.335-3.339,34.975-5.201l-.532-1.929c-.524.099-1.049.198-1.573.296-.705.132-.397-.07.033.209v1.727c-.175.135-.037,0,.158-.038.348-.067.699-.203,1.04-.3,1.262-.359,2.526-.715,3.788-1.077,1.046-.3.894-2.059-.266-1.964-.681.056-1.39.134-2.075.073-.06-.005-.501-.103-.55-.083.054-.022.311.766.241.762.172.008,1.161-.915,1.32-1.016.806-.511,1.648-.962,2.491-1.406.552-.291.667-1.149.202-1.571-2.684-2.432-3.883-5.526-3.836-9.13.074-5.646,2.161-11.273,4.088-16.503.423-1.147-1.208-1.608-1.828-.771-.887,1.199-1.77,2.404-2.707,3.564-.24.298-.486.59-.739.877-.066.075-.22.178-.261.272-.074.17-.012-.284.643-.055l.598.46c.632.845-.134.714.159.367.05-.059.075-.189.105-.264.204-.506.473-.994.722-1.479.836-1.632,1.726-3.236,2.614-4.84.635-1.147-.987-2.038-1.727-1.009-.982,1.363-1.962,2.732-3.007,4.048-.308.388-1.311,1.314-1.376,1.577-.084.344,1.321.693,1.242.804.067-.094.089-.321.125-.433.122-.378.281-.747.438-1.112.616-1.433,1.315-2.832,2.007-4.229.402-.812-.484-1.998-1.368-1.368-5.223,3.72-10.994,7.343-17.451,8.32-5.717.865-11.252-.861-16.304-3.439-.751-.383-1.722.253-1.469,1.129.355,1.232.711,2.471.947,3.733.063.336.104.667.135,1.007.038.424-.148.45.406.146.675-.37.366.023.144-.346-.177-.295-.573-.571-.804-.835-.848-.971-1.596-2.029-2.341-3.079-.754-1.064-2.242-.164-1.727,1.009.562,1.281,1.124,2.562,1.637,3.864.198.502.362,1.664.706,2.064.07.082,1.269-.616,1.249-.694-.039-.156-.43-.45-.539-.577-.717-.831-1.355-1.733-1.999-2.619-.628-.865-2.167-.392-1.828.771,1.565,5.37,3.011,10.927,3.052,16.557.03,4.231-.964,8.256-2.889,12.017-.586,1.143,1.139,2.157,1.727,1.009h0Z"/>
      <path d="M72.593,69.926c1.238,2.262,2.2,4.678,2.206,7.293.006,2.802-1.003,5.485-2.172,7.99-.357.765.232,1.709,1.129,1.469,3.759-1.006,7.575-1.858,11.465-2.138,3.577-.258,7.154-.031,10.698.49.897.132,1.501-.633,1.129-1.469-.228-.514-.402-.595.157-.599.93-.006,1.827.06,2.751.184,1.085.145,1.213-1.366.505-1.863-.43-.302-.875-.596-1.268-.946-.091-.081-.286-.345-.382-.369-.708.701-.853,1.076-.434,1.125.078.011.156.015.235.011.388.143.94.14,1.352.224.805.162,1.628-.685,1.129-1.469-1.159-1.823-2.098-3.788-2.065-5.994.036-2.402,1.131-4.643,2.279-6.696.478-.856-.494-1.898-1.368-1.368-.562.341-1.565,1.099-2.083,1.193l.771.101-.019-.013.46,1.129c-.218.608-.263.322-.018.172.148-.09.277-.239.41-.35.515-.429,1.049-.837,1.58-1.247.902-.698-.261-2.162-1.212-1.571-.535.333-1.069.67-1.617.982-.117.067-.836.328-.467.327l.863.495-.016-.022.101.771c-.152.463.152-.035.389-.253.39-.358.795-.699,1.198-1.041.841-.715-.095-1.817-.973-1.671-8.474,1.402-16.917,1.973-25.501,1.718-1.287-.038-1.286,1.962,0,2,8.766.26,17.382-.358,26.033-1.789l-.973-1.671c-.685.583-2.823,1.915-1.907,3.071.926,1.168,3.086-.696,3.878-1.188l-1.212-1.571c-.76.588-2.135,1.328-2.486,2.308-.153.427.106.9.46,1.129.936.607,2.64-.85,3.35-1.281l-1.368-1.368c-1.324,2.369-2.507,4.942-2.552,7.706-.041,2.549.995,4.892,2.338,7.004l1.129-1.469c-.969-.196-3.148-.84-3.551.586-.379,1.341,1.654,2.425,2.507,3.024l.505-1.863c-1.312-.175-3.208-.562-4.369.316-1.055.798-.727,2.072-.266,3.108l1.129-1.469c-3.724-.548-7.468-.835-11.229-.562-4.068.295-8.063,1.158-11.996,2.21l1.129,1.469c1.321-2.831,2.449-5.831,2.445-8.999-.003-2.966-1.074-5.735-2.479-8.302-.618-1.129-2.346-.121-1.727,1.009h0Z"/>
      <path d="M73.719,99.646c.974,2.757,1.068,5.463.162,8.252-.978,3.013-2.683,5.776-4.186,8.546-.446.822.501,1.968,1.368,1.368.445-.308.889-.619,1.346-.909.262-.167.865-.343.353-.318l-.707-.293.018.022-.257-.973c.078-.29-.374.315-.46.402-.456.46-.93.902-1.402,1.346-.809.761.273,2.241,1.212,1.571.548-.392,1.096-.787,1.661-1.154.474-.308.887-.263.19-.396l-.598-.46.013.031-.101-.771c.052-.21-.203.202-.312.326-.337.382-.697.745-1.051,1.11-.639.658,0,2.075.973,1.671,2.663-1.103,5.464-2.155,8.363-2.382,2.429-.19,4.737.275,7.005,1.127.491.184,1.118-.207,1.23-.698.14-.612.228-1.135.921-1.149,1.027-.022,2.207.733,3.071,1.185.815.426,1.988-.497,1.368-1.368-.211-.296-.39-.698-.631-.965-.053-.075-.088-.158-.104-.249-.82.625-1.04.913-.659.866.043.059.587.163.67.192.471.165.922.387,1.373.599.968.455,2.097-.744,1.212-1.571-.391-.365-1.009-1.303-1.493-1.528-.957.658-1.176,1.035-.66,1.131.109.025.216.056.322.092.387.189.836.307,1.236.471.676.277,1.499-.559,1.23-1.23-1.006-2.516-1.696-5.117-1.544-7.847.168-3.019,1.314-5.898,2.602-8.597.378-.792-.49-2.039-1.368-1.368-.684.523-1.429,1.278-2.234,1.62l.771-.101-.018-.005.598,1.469c-.101.237-.071.034.079-.071.146-.103.269-.259.399-.381.503-.473,1.02-.931,1.535-1.391.981-.877-.428-2.186-1.414-1.414-.513.402-1.024.808-1.55,1.193-.14.103-.735.41-.423.334l1.23.698-.005-.017-.101.771c-.118.198.354-.35.451-.444.437-.427.887-.84,1.335-1.255.73-.677-.028-1.96-.973-1.671-3.59,1.096-7.265,1.968-11.034,2.035-3.599.064-7.104-.622-10.546-1.627-1.238-.361-1.767,1.568-.532,1.929,3.602,1.051,7.311,1.767,11.078,1.698,3.944-.073,7.81-.959,11.566-2.106l-.973-1.671c-.647.6-2.484,1.785-2.194,2.891.14.534.71.826,1.23.698,1.01-.247,2.081-1.435,2.856-2.042l-1.414-1.414c-.668.598-1.955,1.38-2.326,2.249-.247.578-.088,1.286.598,1.469,1.005.268,2.357-1.208,3.023-1.716l-1.368-1.368c-1.399,2.932-2.594,5.987-2.851,9.254-.237,3.012.48,5.951,1.591,8.731l1.23-1.23c-.869-.356-2.611-1.25-3.259-.058-.659,1.213,1.187,2.562,1.907,3.234l1.212-1.571c-.979-.46-2.803-1.598-3.877-.798-1.115.83-.08,2.288.491,3.091l1.368-1.368c-1.367-.715-3.142-1.741-4.757-1.402-1.285.269-1.9,1.364-2.174,2.562l1.23-.698c-2.415-.907-4.951-1.401-7.537-1.199-3.096.243-6.044,1.273-8.894,2.453l.973,1.671c.63-.648,2.682-2.256,1.607-3.322-1.038-1.029-3.076.953-3.834,1.494l1.212,1.571c.677-.637,3.101-2.293,2.197-3.502-.89-1.188-2.763.567-3.511,1.084l1.368,1.368c1.641-3.025,3.497-6.055,4.497-9.372.903-2.996.768-6.024-.272-8.966-.426-1.205-2.359-.686-1.929.532h0Z"/>
      <path d="M78.998,97.917c-.433,5.645-1.25,11.197-2.455,16.728-.273,1.255,1.654,1.791,1.929.532,1.243-5.704,2.08-11.439,2.527-17.26.098-1.284-1.902-1.277-2,0h0Z"/>
      <path d="M86.347,96.886c0,5.676,0,11.351,0,17.027,0,1.287,2,1.289,2,0,0-5.676,0-11.351,0-17.027,0-1.287-2-1.289-2,0h0Z"/>
      <path d="M74.159,106.741c6.966,0,13.931,0,20.897,0,1.287,0,1.289-2,0-2-6.966,0-13.931,0-20.897,0-1.287,0-1.289,2,0,2h0Z"/>
      <path d="M29.315,111.156c1.309-.357,3.49-.956,4.697.024,1.135.921.388,2.815-.05,3.894-.42,1.037.998,1.513,1.671.973,1.801-1.444,3.589-2.905,5.358-4.388.455-.382.908-.766,1.365-1.146.126-.105.294-.206.399-.329.06-.07.016.042-.18.074l-1.23-.698c-.03-.071.207-1.183.073-.725-.033.112-.252.285-.327.369l1.571,1.212c1.453-2.169,2.991-4.406,3.959-6.847.369-.93.725-2.335-.532-2.753l.441,1.671c.922-1.17,1.859-2.347,2.945-3.371.654-.617,1.482-1.331,2.419-1.428.381-.039.716.127,1.084.115.719-.023,1.421-.365,2.17-.392,1.529-.056,2.991-.014,4.49-.385.655-.162.884-.913.598-1.469-.543-1.053.012-1.595.863-2.26.259-.203.361-.672.257-.973-1.677-4.881,1.829-9.671,4.609-13.387l-1.727-1.009c-.627.892.427,1.701,1.264,1.482.692-.181,1.388-.638,2.021-.956,3.689-1.856,7.376-3.714,11.09-5.518,1.157-.562.145-2.288-1.009-1.727-3.166,1.538-6.318,3.104-9.459,4.693-.804.407-1.606.818-2.414,1.216-.22.108-.499.195-.699.336-.19.134.004-.08-.04.019-.027.011-.054.02-.082.029-.335.089-.041.177.879.264l.293.707c-.184.464-.224.618-.118.464.749-1.066-.971-2.02-1.727-1.009-3.126,4.179-6.679,9.489-4.811,14.928l.257-.973c-1.619,1.265-2.135,2.823-1.176,4.684l.598-1.469c-1.682.416-3.373.168-5.07.408-.59.084-.953.219-1.495.204-.502-.014-.955-.023-1.451.105-2.565.658-4.436,3.305-5.975,5.258-.47.596-.327,1.416.441,1.671-.257-.085-.646-.572-.564-.624.024-.015-.055.226-.091.342-.163.514-.396.999-.64,1.479-.966,1.901-2.142,3.696-3.327,5.465-.629.939.811,2.057,1.571,1.212.357-.397,1.025-.981.769-1.59-.228-.542-.634-.794-1.23-.698-.708.114-1.589,1.179-2.096,1.605-1.891,1.589-3.802,3.154-5.729,4.699l1.671.973c.76-1.877,1.214-4.341-.486-5.861-1.762-1.575-4.566-1.078-6.621-.517-1.24.338-.714,2.268.532,1.929h0Z"/>
      <path d="M95.657,72.601c4.034,1.013,8.087,2.105,11.944,3.68,1.944.794,4.435,1.787,5.742,3.542.345.463.477.955.48,1.379.008,1.037.505,1.344,1.199,2.132.76.863,1.453,1.78,2.037,2.771,1.881,3.194,1.926,6.671,1.343,10.24-.072.442.047.892.46,1.129,4.212,2.427,7.595,6.093,11.453,9.013.424.321,1.13.071,1.368-.359.74-1.339,1.604-2.992,3.043-3.7,1.611-.792,3.444.063,4.884.839.683.368,1.473-.095,1.505-.863.011-.267.043-.491.112-.748.017-.063.103-.034-.033.003.186-.051.925.27,1.255.437,2.27,1.147,4.337,2.754,6.404,4.221.97.688,1.928-.765,1.212-1.571-.119-.133-.316-.514-.466-.598-.084-.047-.033-.084-.035-.082.116-.091-.416,1.369-.445.859.002.035-.062-.064.112-.001.089.032.223.006.321.019.334.042.664.112.992.183,2.684.585,5.318,1.446,7.952,2.218,1.146.336,1.655-1.2.771-1.828-.958-.681-1.925-1.36-2.819-2.125-.204-.175-.494-.58-.734-.683-.074-.032-.154-.106-.097-.115.122-.019-.562,1.273-.646,1.119.059.11,1.623.439,1.863.525,1.346.477,2.665,1.033,3.977,1.594,1.148.492,2.163-1.076,1.009-1.727-1.236-.697-2.468-1.415-3.733-2.059-.627-.319-1.265-.701-1.9-.144-.36.315-.33.82-.156,1.212.252.569,1.22,1.005,1.703,1.324,1.577,1.042,3.178,2.047,4.777,3.056,1.092.689,2.096-1.041,1.009-1.727-1.455-.918-2.911-1.836-4.352-2.777-.393-.256-.785-.513-1.172-.78-.313-.216-.356-.368-.239-.105l-.156,1.212.008-.007-.707.293c-.422-.038-.282-.095-.026.068.283.18.608.316.904.476,1.017.549,2.024,1.118,3.031,1.686l1.009-1.727c-1.736-.743-3.48-1.519-5.287-2.075-.754-.232-1.89-.615-2.539.055-1.642,1.696,3.376,4.528,4.263,5.158l.771-1.828c-2.098-.615-4.192-1.247-6.305-1.809-1.097-.292-2.287-.67-3.434-.681-.714-.007-1.469.249-1.661,1.017-.214.854.507,1.637,1.023,2.218l1.212-1.571c-1.617-1.148-3.23-2.313-4.913-3.363-.91-.568-1.898-1.189-2.949-1.453-1.904-.479-2.813.902-2.884,2.63l1.505-.863c-1.957-1.054-4.271-1.95-6.457-1.044-1.994.827-3.207,2.815-4.206,4.622l1.368-.359c-3.864-2.925-7.232-6.581-11.453-9.013l.46,1.129c.438-2.678.684-5.405.01-8.068-.78-3.08-2.7-5.669-4.868-7.927l.257.973c.528-2.779-1.961-4.67-4.112-5.874-4.721-2.642-10.225-4.001-15.429-5.308-1.249-.314-1.781,1.615-.532,1.929h0Z"/>
      <path d="M498.322,45.094c-1.297-2.011-2.647-4.33-2.503-6.813.129-2.226,1.589-4.035,3.081-5.567.444-.456.364-1.248-.202-1.571-1.967-1.118-3.758-2.515-4.826-4.553-1.053-2.009-1.23-4.331-1.218-6.559.003-.664-.641-1.118-1.266-.964-2.099.517-4.356.916-6.477.288-2.091-.619-3.6-2.248-4.798-3.994-.333-.485-1.128-.732-1.571-.202-1.202,1.437-2.653,2.764-4.611,2.902-2.114.149-4.187-.873-6.001-1.832-.605-.319-1.592.062-1.505.863.127,1.167.482,3.255-.537,4.167-1.035.926-3.106.289-4.251.005-.6-.149-1.302.297-1.266.964.38,7.043-.549,13.803-2.839,20.474-.221.644.354,1.238.964,1.266,1.371.063,3.49.112,4.392,1.368.855,1.191.275,3.061-.083,4.316-.189.665.503,1.533,1.23,1.23,1.43-.597,3.444-1.567,5.04-1.098,1.417.416,1.741,2.196,1.968,3.447.118.651.95.893,1.469.598,2.285-1.303,4.723-2.178,7.385-2.039,2.832.147,5.521,1.336,8.017,2.592.604.304,1.247.037,1.469-.598,1.718-4.918,5.67-7.649,10.485-9.168,1.223-.386.701-2.317-.532-1.929-5.522,1.742-9.923,4.956-11.882,10.565l1.469-.598c-2.83-1.424-5.823-2.695-9.027-2.865-2.997-.159-5.824.846-8.394,2.312l1.469.598c-.342-1.879-1.053-3.962-2.99-4.713-2.096-.813-4.541.159-6.479.968l1.23,1.23c.55-1.933,1.033-4.316-.27-6.063-1.346-1.806-3.893-2.057-5.967-2.153l.964,1.266c2.343-6.825,3.299-13.801,2.911-21.006l-1.266.964c1.889.47,4.426,1.013,6.065-.404,1.588-1.373,1.46-3.81,1.255-5.696l-1.505.863c2.213,1.17,4.722,2.33,7.293,2.081,2.386-.231,4.247-1.678,5.742-3.465l-1.571-.202c1.452,2.115,3.241,3.995,5.729,4.829,2.526.847,5.283.417,7.805-.204l-1.266-.964c-.014,2.594.27,5.239,1.491,7.569s3.297,3.994,5.543,5.27l-.202-1.571c-1.809,1.857-3.416,4.025-3.646,6.689-.253,2.941,1.211,5.721,2.755,8.114.695,1.078,2.427.076,1.727-1.009h0Z"/>
      <path d="M478.571,48.053c.191,7.371,1.343,14.706,3.84,21.659,2.25,6.264,5.478,12.1,9.163,17.625,2.255,3.381,4.664,6.655,7.105,9.903l1.571-1.212c-.461-.528-1.161-1.079-1.825-.419-.569.565-.174,1.258.142,1.821,1.665,2.974,3.404,5.904,5.042,8.894l1.571-1.212c-1.406-1.246-3.631-2.423-4.868-.286-.585,1.011-.7,2.281-.788,3.419-.167,2.143-.046,4.309.086,6.451l1.707-.707c-2.637-2.372-5.666-5.264-9.193-6.221-2.684-.729-4.863.39-6.427,2.576l1.828.239c-.893-3.157-1.884-7.23-4.449-9.519-1.894-1.69-4.198-1.424-6.347-.39l1.505.863c.174-2.51.348-5.58-1.084-7.801-1.109-1.72-3.026-2.252-4.975-2.217l.863,1.505c1.123-2.305,2.392-4.804,2.488-7.419.078-2.143-.943-3.937-2.472-5.367l.257.973c1.875-4.725,1.444-9.799.782-14.724-.906-6.742-1.868-13.4-1.678-20.226.036-1.287-1.964-1.286-2,0-.186,6.679.704,13.217,1.62,19.812.678,4.885,1.211,9.91-.653,14.606-.124.314.02.751.257.973,1.246,1.166,2.019,2.488,1.869,4.233-.185,2.149-1.27,4.225-2.198,6.129-.32.657.059,1.519.863,1.505,1.4-.025,2.761.238,3.455,1.58.979,1.892.745,4.394.603,6.438-.057.816.876,1.166,1.505.863,1.593-.767,3.104-.882,4.357.509,1.948,2.164,2.732,5.487,3.501,8.204.25.883,1.343.916,1.828.239,3.454-4.827,9.683,1.535,12.479,4.05.599.539,1.764.21,1.707-.707-.161-2.616-.511-5.588.174-8.162.077-.29.168-.562.327-.818.047-.076.217-.159.058-.118.459-.119,1.234.606,1.597.927.838.743,2.132-.187,1.571-1.212-1.275-2.328-2.574-4.642-3.906-6.938-.336-.579-.677-1.156-1.01-1.738-.087-.151-.162-.347-.272-.482-.359-.438.315.025-.151.663l-.863.495c-.597-.062-.752-.396-.296.126.735.843,2.257-.298,1.571-1.212-8.082-10.755-15.601-21.964-18.411-35.339-.888-4.227-1.313-8.524-1.425-12.838-.033-1.285-2.033-1.29-2,0h0Z"/>
      <path d="M489.105,47.71c1.063,12.22,4.362,24.067,11.856,33.957,2.097,2.768,4.42,5.344,6.908,7.766.525.511,1.489.303,1.671-.441.093-.38.072-.047-.055-.055.009,0-.442.104-.441.102-.04.075.013-.136.03.018.019.173.792.905.92,1.108,1.197,1.904,1.903,4.107,2.541,6.246l1.671-.973c-1.036-1.205-2.874-3.147-4.624-2.048-1.893,1.188-1.729,4.637-1.748,6.517l1.863-.505c-.967-1.634-2.574-4.847-4.88-4.804-2.274.042-3.064,3.251-3.541,4.943-.35,1.241,1.579,1.77,1.929.532.181-.64.76-3.482,1.716-3.467.43.007.97.758,1.207,1.04.712.846,1.28,1.817,1.842,2.766.507.857,1.853.487,1.863-.505.011-1.053.027-2.122.21-3.161.062-.353.166-1.391.537-1.6.609-.344,1.845,1.281,2.212,1.708.661.77,1.946-.051,1.671-.973-.788-2.641-1.701-5.988-3.719-8.013-1.068-1.071-2.721-1.089-3.132.594l1.671-.441c-5.259-5.119-9.713-10.966-12.757-17.669-3.233-7.118-4.746-14.889-5.42-22.64-.111-1.272-2.112-1.284-2,0h0Z"/>
      <path d="M489.103,107.163c.597,5.379.654,11.032-1.128,16.211-.733,2.13-2.098,4.775-3.75,5.991-.48.354-.863.518-.984,1.179-.299,1.634-.157,3.508-.097,5.162.095,2.591.422,5.203,1.159,7.694.595,2.01,1.462,3.948,2.591,5.715.504.789,1.109,1.497,1.64,2.264.554.801.863,1.823,1.295,2.705,2.811,5.731,6.246,11.122,8.989,16.897l.863-1.505c-2.234.122-2.422,2.577-2.186,4.308.618,4.54,3.033,8.945,5.164,12.917.613,1.143,2.288.137,1.727-1.009-.267-.545-.543-1.102-.77-1.658-.046-.113-.083-.304-.157-.408-.335-.473.826-.383-.329.656l-.973.257c-.552-.156-.521-.607-.416-.197.048.185.198.389.28.562.341.718.635,1.459.923,2.2,1.113,2.867,2.046,5.802,2.917,8.75l1.828-.771c-1.069-1.791-2.142-3.641-3.5-5.234-.606-.711-1.575-1.636-2.573-1.053-.95.554-.799,1.985-.7,2.897.258,2.378.861,4.722,1.442,7.037l1.671-.973c-1.71-2.074-3.488-4.147-5.561-5.872-1.2-.998-2.568-2.013-4.131-2.33-3.237-.658-4.794,2.407-5.493,5.05h1.929c-.757-2.71-1.509-5.427-2.39-8.1-.496-1.506-.993-3.131-1.848-4.481-.492-.777-1.203-1.532-2.204-1.412-.99.118-1.612,1.042-2.061,1.841l1.828.239c-3.75-16.107-8.848-31.822-13.491-47.681-1.445-4.934-2.835-9.883-4.155-14.852-.33-1.243-2.26-.716-1.929.532,4.32,16.258,9.643,32.221,14.078,48.445,1.278,4.673,2.469,9.369,3.568,14.088.195.84,1.415.973,1.828.239.174-.309.361-.554.56-.818.154-.204-.072-.111-.108-.066-.024.03-.046-.093.03.031.069.114.148.152.216.248.268.379.475.809.666,1.231,1.584,3.487,2.459,7.374,3.484,11.048.263.942,1.674.962,1.929,0,.502-1.9,1.392-4.373,3.783-3.436,1.323.518,2.467,1.525,3.492,2.479,1.652,1.538,3.132,3.253,4.566,4.992.668.81,1.898-.072,1.671-.973-.473-1.882-.941-3.774-1.255-5.691-.081-.496-.154-.997-.174-1.499-.006-.156.056-.473,0-.615-.053-.135.079-.065-.002-.084.091.021-.806.439-.787.261,0,.009.209.141.257.207.24.331.564.617.814.945,1.05,1.376,1.936,2.887,2.821,4.371.572.959,2.155.336,1.828-.771-.82-2.777-1.698-5.54-2.725-8.248-.47-1.24-.912-2.597-1.597-3.741-.632-1.056-2.256-.874-2.017.55.161.957.788,1.96,1.208,2.818l1.727-1.009c-1.9-3.541-3.857-7.269-4.744-11.221-.18-.801-.342-1.762-.205-2.509.047-.258.186-.489.147-.429.031-.049.056-.055.096-.057.795-.044,1.195-.807.863-1.505-2.624-5.522-5.836-10.705-8.611-16.142-.524-1.026-.911-2.147-1.461-3.152-.515-.94-1.341-1.762-1.921-2.681-1.258-1.994-2.135-4.17-2.674-6.463-.845-3.593-.869-7.323-.638-10.989l-.495.863c2.293-1.256,3.76-3.993,4.706-6.308,2.298-5.618,2.309-12,1.65-17.938-.14-1.265-2.142-1.279-2,0h0Z"/>
      <path d="M471.708,44.447c-3.076,19.746-7.414,39.237-11.842,58.715-4.081,17.951-8.053,35.938-10.484,54.2-1.477,11.093-2.379,22.254-2.673,33.441-.029,1.106,1.743,1.388,1.964.266.484-2.454.964-4.91,1.494-7.355.141-.652.281-1.305.449-1.951.045-.174.158-.407.162-.584.001-.048.062-.11.053-.154.022.117-.388.498-.599.536l-.771-.101c-.561-.34-.408-1.048-.452-.426-.019.267-.026.535-.047.802-.068.904-.167,1.807-.266,2.708-.374,3.428-.806,6.85-1.233,10.272-.143,1.144,1.664,1.316,1.964.266.701-2.453,1.433-4.99,2.677-7.234.322-.58.682-1.206,1.21-1.628.316-.252.399-.224.547-.143,1.173.638,1.728,2.756,2.109,3.944,1.029,3.205,1.624,6.551,2.167,9.867.157.956,1.769.953,1.929,0,.515-3.072,1.07-6.169,2.009-9.145.351-1.113.994-3.051,1.811-3.509.004-.002-.005-.012.042.03.132.119.253.197.402.379.466.571.781,1.308,1.059,1.983,1.056,2.566,1.671,5.33,2.261,8.031.238,1.09,2.034.865,1.964-.266-.232-3.753-.476-7.505-.712-11.258-.061-.972-.125-1.945-.174-2.918-.013-.248-.01-.501-.033-.748-.055-.598.086-.021-.283.313h-1.414c-.54-.45-.174-.51-.197-.188-.011.159.055.365.077.521.064.455.15,1.175.218,1.728.287,2.347.564,4.696.846,7.043l1.964-.266c-1.48-9.421-2.808-18.918-3.153-28.46-.223-6.172-.054-12.473,1.523-18.478.694-2.644,1.675-5.189,2.976-7.594.613-1.132-1.114-2.143-1.727-1.009-6.245,11.542-5.264,25.669-3.946,38.263.623,5.958,1.469,11.892,2.399,17.809.173,1.101,2.099.855,1.964-.266-.306-2.544-.603-5.09-.919-7.633-.087-.7.017-2.363-.611-2.886-.431-.359-.983-.391-1.414,0-.381.346-.311.914-.293,1.374.036.928.101,1.856.159,2.783.246,3.956.506,7.912.751,11.868l1.964-.266c-.665-3.044-1.364-6.179-2.684-9.019-.591-1.271-1.613-3.058-3.273-2.846-1.67.213-2.475,2.235-3,3.585-1.3,3.343-1.894,6.991-2.484,10.511h1.929c-.611-3.733-1.249-7.585-2.609-11.134-.571-1.489-1.4-3.605-3.113-4.096-1.594-.457-2.834.898-3.609,2.106-1.592,2.48-2.435,5.515-3.236,8.317l1.964.266c.452-3.627.915-7.254,1.299-10.89.102-.962.689-3.059-.002-3.929-1.326-1.67-2.058,1.141-2.247,1.949-.664,2.847-1.205,5.724-1.77,8.591l1.964.266c.505-19.242,2.945-38.315,6.626-57.195,3.559-18.255,8.065-36.309,11.939-54.497,2.412-11.322,4.581-22.694,6.363-34.132.196-1.259-1.731-1.802-1.929-.532h0Z"/>
      <path d="M350.347,3.151c1.671,4.173,3.608,8.259,6.22,11.934,2.273,3.198,4.993,5.994,8.023,8.478l-.156-1.212c-3.474,7.342-5.091,15.115-5.971,23.15l1-1c-8.743.714-16.81,4.017-24.49,8.097l1.505.863c.193-1.538.938-5.158-1.081-5.934-2.048-.787-4.349,2.395-5.423,3.628l1.707.707c-.459-5.851-1.541-12.454-8.014-14.271l.598,1.469c3.747-7.78,6.686-15.755,8.157-24.285l-.698.698c9-2.79,16.726-8.089,24.093-13.83,1.014-.79-.41-2.197-1.414-1.414-7.083,5.52-14.559,10.633-23.21,13.315-.31.096-.64.357-.698.698-1.441,8.36-4.282,16.181-7.955,23.808-.278.577-.063,1.284.598,1.469,5.479,1.537,6.163,7.459,6.546,12.342.062.79,1.092,1.413,1.707.707.7-.803,1.411-1.606,2.202-2.322.285-.258.603-.451.896-.693.169-.139.381-.063.215-.178-.268-.185,0,.766.005.968.028,1.041-.098,2.086-.228,3.117-.101.802.909,1.18,1.505.863,7.348-3.904,15.108-7.14,23.48-7.824.585-.048.937-.423,1-1,.839-7.661,2.384-15.139,5.698-22.14.176-.371.201-.919-.156-1.212-2.89-2.37-5.541-5.02-7.71-8.073-2.509-3.531-4.412-7.445-6.018-11.456-.472-1.18-2.408-.665-1.929.532h0Z"/>
      <path d="M349.103,50.116v10.218c0,1.287,2,1.289,2,0v-10.218c0-1.287-2-1.289-2,0h0Z"/>
      <path d="M330.742,50.042c0,3.832,0,7.663,0,11.495,0,1.287,2,1.289,2,0,0-3.832,0-7.663,0-11.495,0-1.287-2-1.289-2,0h0Z"/>
      <path d="M353.738,47.942c.304,6.31.514,13.239,2.967,19.162,1.455,3.514,4.091,6.211,8.091,6.23,2.585.012,5.09-.9,7.43-1.91l-1.505-.863c-.888,8.608-1.135,17.42.725,25.923,1.574,7.196,4.81,13.838,9.304,19.658,2.928,3.792,6.287,7.214,9.845,10.414l.707-1.707c-3.242.114-6.508.136-9.737-.223-1.688-.188-3.785-.401-5.25-1.363-.737-.484-.833-.697-.368-1.333.984-1.345,2.862-2.134,4.32-2.802.741-.339.553-1.342,0-1.727-6.058-4.219-11.699-9.165-15.857-15.317-4.121-6.097-6.577-13.062-8.03-20.239-1.019-5.035-1.568-10.149-1.915-15.27-.086-1.273-2.055-1.295-2,0,.303,7.113-.445,14.11-.657,21.202-.1,3.325.154,7.353,4.034,8.256l-.598-1.469c-1.753,3.288-4.229,7.734-3.249,11.627.749,2.977,3.705,4.115,6.456,4.538l-.598-1.469c-2.342,3.123-4.889,6.641-5.24,10.659-.33,3.789,1.908,6.997,4.465,9.554l.441-1.671c-2.398.911-4.67,2.537-3.957,5.417.366,1.478,1.328,2.787,2.256,3.96,1.659,2.099,3.594,3.973,5.53,5.812v-1.414c-1.998,1.594-1.95,4.267-1.364,6.532,1.174,4.539,3.882,8.764,6.334,12.696,2.403,3.851,4.959,7.606,7.55,11.332l1.571-1.212c-.982-.904-5.27-5.654-6.807-3.359-.553.826-.13,2.029.156,2.874.67,1.981,1.598,3.886,2.498,5.768,1.768,3.695,3.642,7.338,5.51,10.983l1.368-1.368c-5.049-3.196-11.57-5.76-17.584-3.971-5.251,1.562-7.971,6.263-8.403,11.498l1.964-.266c-1.255-3.6-2.499-7.209-3.88-10.764-.399-1.026-.854-3.176-1.933-3.768-1.825-1.001-1.584,1.734-1.442,2.61.458,2.831,1.171,5.632,1.829,8.421l1.828-.771c-4.878-10.531-7.676-21.692-9.088-33.182-.966-7.865-1.128-16.216-3.96-23.706-.672-1.777-1.496-3.498-2.531-5.094-.272-.42-.558-.83-.857-1.231-.351-.471-.544-1.047-.927-1.492-.663-.771-1.507-.617-2.091.142l1.571-.202c-4.866-4.044-8.052,8.654-8.83,11.628-1.673,6.4-2.868,12.921-4.381,19.36-1.221,5.196-2.579,10.358-4.075,15.481-.365,1.25,1.502,1.73,1.929.532.255-.714.74-1.62.733-2.403-.014-1.426-1.515-1.194-2.108-.317-1.937,2.866-3.431,6.115-5.123,9.127-2.12,3.774-4.274,7.528-6.456,11.267l1.863.505c.396-4.18-.262-9.701-5.407-10.235-2.451-.254-4.933.619-7.141,1.586-3.629,1.588-6.963,3.811-10.158,6.131l1.469,1.129c2.301-5.661,4.897-11.329,6.608-17.208.481-1.654,1.468-5.883-1.707-5.294-1.549.287-2.985,1.467-4.211,2.377l1.212,1.571c2.725-3.2,5.434-6.42,7.989-9.759,1.335-1.745,2.793-3.557,3.685-5.583.472-1.073.738-2.62-.681-3.092-1.261-.419-2.855.425-3.964.92l1.212,1.571c2.33-2.419,4.656-4.863,6.751-7.492,1.251-1.569,2.559-3.24,3.231-5.156,1.092-3.111-1.167-4.833-3.991-5.376l.239,1.828c1.619-1.204,3.272-2.44,4.633-3.94.775-.854,1.616-1.912,1.685-3.115.148-2.55-2.992-3.257-4.921-3.584l.239,1.828c2.588-1.26,6.255-2.69,7.84-5.289,1.22-2.002-.08-3.902-1.637-5.223l-.441,1.671c3.269-1.3,6.488-3.186,7.726-6.674,1.316-3.708.094-7.983-1.051-11.564l-.46,1.129c6.921-5.189,7.495-15.347,7.889-23.241.22-4.39.231-8.789.179-13.184-.013-1.08-1.805-1.418-1.964-.266-.361,2.608-.763,5.23-1.47,7.77-.4,1.438-.881,3.181-1.986,4.261-2.152,2.104-5.55-1.797-6.887-3.188-.651-.678-1.624-.106-1.707.707-.632,6.195-1.8,12.56-4.796,18.091-2.609,4.816-6.576,8.542-11.297,11.263-3.253,1.875-6.739,3.289-10.287,4.496-.995.338-.896,1.556,0,1.929,1.672.695,3.38,1.41,4.923,2.368.173.108.832.765.999.783-.025-.003-.118-.162-.059-.392.073-.282.186-.288.181-.29-.273-.07-1.035.205-1.352.225-.759.047-1.523.034-2.283.008-2.599-.089-5.19-.377-7.771-.686-1.118-.134-1.36,1.729-.266,1.964,1.351.29,8.397,1.895,7.231-1.725-.453-1.406-2.094-2.439-3.233-3.224-2.553-1.761-5.344-3.182-8.124-4.543l-.505,1.863c3.049.225,6.163.466,9.218.187,1.459-.134,3.429-.319,4.377-1.611.878-1.195.253-2.614-.534-3.669-1.539-2.063-3.723-3.651-5.756-5.187l-.505,1.863c4.176.225,9.722.466,13.06-2.582,2.893-2.641,2.368-7.004,1.498-10.418-.829-3.25-2.125-6.372-3.46-9.441l-.863,1.505c6.09-.194,12.129-1.275,17.768-3.631,6.168-2.577,11.633-6.528,16.38-11.208,3.306-3.259,6.256-6.857,8.995-10.6.761-1.04-.974-2.039-1.727-1.009-7.946,10.859-18.2,20.247-31.65,23.27-3.21.721-6.479,1.073-9.765,1.178-.82.026-1.163.815-.863,1.505,1.35,3.105,2.648,6.286,3.412,9.594.452,1.959.82,4.248.036,6.177-1.811,4.454-9.051,3.863-12.819,3.66-1.095-.059-1.218,1.325-.505,1.863,1.712,1.293,3.5,2.642,4.889,4.294.326.388.67.83.817,1.316.075.246.096.276-.097.432-.912.738-2.707.724-3.845.773-2.685.115-5.383-.064-8.06-.261-.975-.072-1.383,1.434-.505,1.863,2.288,1.12,4.56,2.29,6.726,3.634,1.189.738,2.611,1.542,3.495,2.662.051.065.208.356.252.375.097.042-.118.053.009-.152.222-.355.16-.201-.225-.145-1.486.216-3.155-.228-4.592-.537l-.266,1.964c3.003.359,6.045.729,9.075.706,1.13-.008,2.942.075,3.768-.886,2.223-2.584-5.73-5.259-6.95-5.766v1.929c6.089-2.071,12.136-4.771,16.927-9.162,4.314-3.953,7.126-9.131,8.762-14.706,1.139-3.88,1.75-7.895,2.16-11.911l-1.707.707c2.097,2.182,5.912,6.006,9.162,3.656,1.417-1.025,2.147-2.802,2.686-4.403.973-2.894,1.421-5.966,1.838-8.979l-1.964-.266c.078,6.616.076,13.291-.728,19.869-.472,3.868-1.228,7.968-3.265,11.354-.803,1.336-1.836,2.538-3.086,3.475-.348.261-.605.676-.46,1.129.997,3.118,2.147,6.792,1.193,10.063-.875,2.999-3.746,4.632-6.471,5.715-.63.251-1.075,1.134-.441,1.671,1.094.928,2.128,1.943.99,3.233-1.694,1.921-4.543,3.045-6.787,4.138-.74.36-.599,1.686.239,1.828s3.602.399,3.431,1.693c-.103.782-.976,1.575-1.49,2.096-1.165,1.182-2.487,2.206-3.816,3.194-.616.458-.694,1.648.239,1.828.85.163,2.136.413,2.628,1.106.444.627.079,1.64-.292,2.406-.808,1.664-2.004,3.151-3.181,4.564-1.908,2.291-3.961,4.459-6.028,6.606-.831.863.212,2.018,1.212,1.571.573-.256,1.156-.49,1.763-.652.305-.082.279-.033.453-.087.303-.095.13.056.067-.033-.032-.045-.275-.428-.238-.416.07.024-.014.232-.05.353-.147.492-.407.95-.684,1.426-2.903,4.994-7.039,9.407-10.764,13.781-.679.798.236,2.295,1.212,1.571.788-.585,1.589-1.168,2.445-1.65.409-.23,1.049-.461,1.183-.506.196-.066.052-.017.076.004-.035-.03-.163-.175-.262-.209.085.03.06.204.058.154.021.609-.086,1.177-.226,1.769-.561,2.369-1.474,4.668-2.346,6.936-1.464,3.811-3.019,7.587-4.556,11.369-.32.788.789,1.623,1.469,1.129,2.81-2.041,5.719-3.988,8.843-5.521,2.041-1.001,4.353-1.976,6.668-1.967,4.409.018,4.499,4.978,4.186,8.279-.097,1.023,1.393,1.312,1.863.505,3.451-5.915,6.803-11.884,10.13-17.87.349-.628.696-1.258,1.058-1.879.1-.172.206-.341.306-.513.035-.061.109-.133.129-.2.066-.22-.013.16-.04.046.094.392-1.973-.476-1.611-.819-.061.057-.086.312-.112.388-.184.545-.369,1.089-.562,1.631l1.929.532c2.211-7.572,4.076-15.229,5.752-22.936,1.129-5.194,2.129-10.452,3.742-15.524.367-1.153,2.832-8.472,4.449-7.128.542.45,1.154.339,1.571-.202l-1.071.283c.118.218.227.44.329.665.088.138.21.272.307.402.249.334.49.676.721,1.023.456.687.875,1.398,1.257,2.129.749,1.431,1.339,2.934,1.82,4.475,1.062,3.406,1.61,6.953,2.044,10.486,1.095,8.906,1.839,17.819,4.01,26.555,1.586,6.384,3.82,12.577,6.584,18.545.492,1.063,2.078.29,1.828-.771-.577-2.448-1.162-4.899-1.638-7.369-.108-.558-.212-1.167-.275-1.661-.014-.109.028-.351-.015-.447.275.61-1.496.319-1.52.617.007-.084-.058-.178.001.035.132.473.468.965.658,1.424.367.888.706,1.787,1.043,2.687,1.15,3.076,2.234,6.177,3.315,9.278.378,1.084,1.871.867,1.964-.266.377-4.566,2.831-8.564,7.461-9.713,5.371-1.333,11.057,1.089,15.517,3.912.891.564,1.801-.524,1.368-1.368-1.796-3.505-3.596-7.01-5.306-10.559-.949-1.97-1.973-3.97-2.616-6.068-.083-.272-.149-.544-.212-.822-.032-.142.071-.237-.031-.174.081-.051-.565.418-.55.399-.044.054-.038-.03.171.099,1.486.911,2.765,2.104,4.044,3.281.795.732,2.249-.236,1.571-1.212-3.79-5.45-7.593-10.955-10.764-16.797-1.44-2.654-3.412-6.008-3.214-9.161.057-.901.371-1.56,1.145-2.178.416-.332.358-1.074,0-1.414-1.623-1.543-3.234-3.11-4.698-4.807-.885-1.025-1.812-2.144-2.345-3.404-.844-1.997.565-2.964,2.332-3.636.684-.26,1.012-1.101.441-1.671-2.274-2.274-4.317-5.074-3.843-8.462.487-3.482,2.884-6.6,4.931-9.327.362-.482,0-1.377-.598-1.469-2.068-.318-4.648-.946-5.102-3.333-.628-3.298,1.618-7.133,3.091-9.894.292-.547.054-1.317-.598-1.469-3.222-.75-2.644-5.01-2.515-7.536.341-6.681.893-13.293.607-19.994h-2c.592,8.745,1.729,17.621,4.806,25.878,2.531,6.792,6.425,12.908,11.528,18.059,3.185,3.215,6.75,6.032,10.459,8.615v-1.727c-2.16.99-7.857,4.026-4.691,7.034,1.382,1.313,3.603,1.707,5.408,1.983,3.741.572,7.555.563,11.328.431.819-.029,1.38-1.102.707-1.707-5.795-5.212-11.111-11.061-14.683-18.045-3.379-6.606-4.895-13.923-5.207-21.3-.216-5.085.081-10.178.603-15.237.087-.842-.893-1.127-1.505-.863-2.939,1.269-7.008,2.692-9.91.575-3.155-2.302-3.946-7.219-4.52-10.781-.615-3.817-.864-7.692-1.049-11.55-.062-1.281-2.062-1.289-2,0h0Z"/>
      <path d="M441.27,84.837c-2.13-3.713-3.287-7.721-3.254-12.015.044-5.655,1.683-11.227,3.424-16.559.298-.912-1.034-1.756-1.671-.973-.716.88-1.432,1.765-2.203,2.597-.211.227-.593.487-.753.75-.231.38,1.163.763,1.121.819.356-.474.51-1.458.757-2.013.598-1.345,1.247-2.667,1.896-3.987.465-.946-.819-2.158-1.571-1.212-.825,1.039-1.658,2.077-2.569,3.043-.223.236-1.361,1.237-1.36,1.241-.012-.085.688.363.647.383-.002.001-.049-.125-.009-.241.102-.296.08-.729.145-1.044.266-1.291.67-2.553,1.075-3.805.293-.907-.735-1.464-1.469-1.129-5.739,2.616-11.923,4.272-18.263,3.451-7.148-.926-13.683-4.522-19.673-8.332-.871-.554-1.836.524-1.368,1.368.789,1.422,1.582,2.847,2.289,4.313.182.376.314.801.512,1.167.044.082.147.323.094.277-.303-.262,1.088-1.211,1.223-.779-.095-.303-1.371-1.35-1.703-1.727-1.178-1.336-2.3-2.723-3.418-4.109-.717-.889-2.161.259-1.571,1.212.985,1.588,1.972,3.177,2.904,4.797.286.497.728,1.764,1.038,2.009-.464-.367,1.441-.548,1.258-1.02.008.02-.058-.016-.152-.144-.238-.328-.607-.62-.882-.922-1.126-1.239-2.192-2.535-3.26-3.824-.617-.745-2.05.056-1.671.973,2.131,5.163,4.505,10.826,4.583,16.505.052,3.751-1.429,6.779-4.332,9.127-.477.385-.344,1.314.202,1.571.986.464,1.972.935,2.917,1.478.315.181,1.083.936,1.407.978.206.027.371-.745.269-.818-.019-.014-.579.095-.628.1-.799.077-1.631-.009-2.428-.068-1.134-.083-1.344,1.688-.266,1.964,1.402.359,2.806.713,4.21,1.069.366.093.733.183,1.097.282.154.042.674.259.304.062l-.495-.863v.006c.334-.333.667-.667,1-1-.368.046-1.66-.26-2.321-.372l-.532,1.929c13.132,1.876,26.279,3.634,39.447,5.237v-2c-.717-.062-1.759-.349-2.474-.118-.669.216-1.038,1.151-.441,1.671.34.296.735.335,1.16.411,1.043.187,2.091.347,3.137.517l.266-1.964c-.964-.041-3.769-.456-3.743,1.206.025,1.56,3.245,2.012,4.271,2.302l-.698-1.23c-1.414,3.857-1.246,7.941-.265,11.882,1.586,6.377,4.722,12.38,7.78,18.149l1.571-1.212c-1.175-1.35-2.329-2.764-3.637-3.991-.605-.567-1.691-1.323-2.301-.269-.467.808.317,1.904.698,2.585,1.12,1.998,2.369,3.928,3.594,5.863l1.571-1.212c-1.409-1.537-2.83-3.122-4.457-4.436-.723-.584-1.763-1.436-2.753-.992-1.019.457-.872,1.692-.667,2.587.437,1.905,1.345,3.742,2.147,5.511l1.368-1.368c-6.026-3.397-12.616-6.383-19.648-6.563-6.573-.169-12.723,2.338-18.302,5.612l1.469,1.129c.495-1.768,1.035-3.578,1.214-5.413.083-.847.053-2.032-.948-2.327-.9-.266-1.684.51-2.23,1.114-1.303,1.439-2.365,3.123-3.425,4.741l1.828.771c.775-1.859,1.582-3.721,2.21-5.636.242-.736.689-1.867.032-2.521-.73-.725-1.605-.061-2.129.527-1.127,1.265-2.054,2.741-3,4.14l1.828.771c1.202-7.638,1.939-15.415.841-23.111-.971-6.805-3.573-13.155-7.002-19.076-.645-1.113-2.374-.108-1.727,1.009,3.293,5.686,5.773,11.742,6.752,18.267,1.112,7.414.365,15.02-.793,22.378-.173,1.101,1.164,1.752,1.828.771.739-1.094,1.471-2.203,2.285-3.244.155-.198.602-.553.683-.794.044-.132.089.002.072-.062-.059-.213-1.448-.457-1.304-.58-.195.167-.512,1.63-.667,2.047-.571,1.543-1.205,3.063-1.838,4.582-.454,1.09,1.239,1.669,1.828.771.802-1.225,1.606-2.461,2.51-3.614.271-.345.549-.698.865-1.003.023-.022.344-.288.347-.32.006-.068.011,0,.01-.005l-.794-.323c-.047-.116-.052-.111-.017.015.011-.01-.004.195-.011.266-.037.407-.081.8-.157,1.203-.26,1.393-.64,2.763-1.021,4.126-.235.84.718,1.57,1.469,1.129,5.287-3.103,11.061-5.499,17.292-5.339,6.672.172,12.926,3.071,18.639,6.29.931.525,1.764-.494,1.368-1.368-.642-1.416-1.293-2.848-1.752-4.337-.1-.326-.128-.832-.277-1.126-.078-.153.051-.156-.017-.161.077.005-.629.484-.623.408-.001.014,1.465,1.1,1.719,1.334,1.244,1.146,2.397,2.391,3.539,3.636.764.833,2.179-.25,1.571-1.212-.975-1.541-1.951-3.082-2.886-4.648-.294-.492-.586-.985-.86-1.489-.102-.187-.293-.708-.398-.786-.017-.047-.032-.095-.043-.144l-1.314.999c.003.074.129.059.164.124.167.306.624.604.865.856,1.027,1.075,2.001,2.203,2.978,3.324.771.886,2.084-.244,1.571-1.212-2.941-5.55-5.935-11.286-7.511-17.404-.954-3.703-1.134-7.456.198-11.087.187-.51-.212-1.092-.698-1.23-.75-.213-1.503-.424-2.24-.682-.205-.072-.431-.208-.64-.244-.579-.1.221-.605.082.505l-.293.707c-.171.201-.328.031-.088.119.092.034.413-.019.486-.021.544-.012,1.088.012,1.631.035,1.104.047,1.392-1.781.266-1.964-.928-.151-1.857-.299-2.784-.457-.229-.039-.479-.119-.711-.125-.349-.01-.449-.293.08.168l-.441,1.671c-.396.128.203.047.399.061.515.036,1.029.084,1.543.129,1.297.112,1.251-1.848,0-2-12.991-1.581-25.96-3.315-38.916-5.165-1.248-.178-1.812,1.712-.532,1.929.843.143,1.989.55,2.853.443.514-.064,1.032-.407,1-1-.049-.909-.905-1.036-1.607-1.219-1.656-.431-3.319-.84-4.977-1.264l-.266,1.964c1.187.087,4.748.594,4.745-1.456-.001-.776-.654-1.322-1.225-1.742-1.233-.905-2.671-1.552-4.048-2.199l.202,1.571c3.134-2.534,4.853-5.985,4.918-10.024.098-6.036-2.395-12.08-4.655-17.554l-1.671.973c1.237,1.493,2.456,3.03,3.814,4.418.593.607,1.619,1.562,2.387.588.608-.771-.156-1.89-.533-2.589-1.058-1.959-2.259-3.846-3.432-5.737l-1.571,1.212c1.375,1.705,2.74,3.443,4.255,5.029.588.615,1.523,1.709,2.484,1.178.92-.509.496-1.631.188-2.371-.778-1.865-1.803-3.636-2.782-5.4l-1.368,1.368c6.305,4.01,13.162,7.676,20.682,8.605,6.712.829,13.204-.958,19.273-3.724l-1.469-1.129c-.51,1.577-1.061,3.196-1.247,4.852-.093.832-.058,1.883.838,2.266.861.368,1.693-.257,2.317-.792,1.33-1.142,2.422-2.592,3.506-3.957l-1.571-1.212c-.841,1.711-1.695,3.424-2.412,5.193-.28.691-.783,1.716-.342,2.444,1.3,2.147,4.496-2.663,5.078-3.379l-1.671-.973c-1.826,5.593-3.516,11.465-3.496,17.401.015,4.528,1.282,8.799,3.528,12.714.64,1.116,2.369.11,1.727-1.009h0Z"/>
      <path d="M431.606,62.246c-1.548,2.524-2.752,5.293-2.76,8.302-.008,3.198,1.264,6.213,2.721,8.999l1.129-1.469c-4.346-1.039-8.749-1.891-13.214-2.197-4.171-.285-8.336-.032-12.475.513l.863,1.505c.53-1.059.828-2.385-.325-3.154-1.287-.859-3.354-.439-4.763-.27l.505,1.863c.885-.554,3.266-1.685,2.719-3.109-.524-1.364-2.79-.683-3.796-.502l1.129,1.469c1.471-2.064,2.649-4.409,2.604-7.003-.048-2.802-1.39-5.386-2.844-7.706l-1.368,1.368c.764.414,2.682,1.907,3.632,1.281.345-.227.617-.704.46-1.129-.403-1.087-2.076-1.856-2.957-2.464l-1.009,1.727c.825.458,3.147,2.28,4.129,1.27,1.203-1.237-1.554-2.767-2.269-3.309l-.771,1.828c9.688,1.432,19.341,2.05,29.132,1.789,1.285-.034,1.29-2.034,0-2-9.607.256-19.093-.312-28.6-1.718-1.14-.168-1.696,1.126-.771,1.828.425.323.853.643,1.263.985.27.225.488.643.344.155l.257-.973-.018.02.707-.293c.298-.004.05.03-.024-.048-.117-.124-.392-.193-.543-.27-.617-.315-1.223-.655-1.828-.991-1.139-.633-2.058,1.002-1.009,1.727.56.387,1.125.769,1.672,1.175.112.083.267.249.396.298.225.086.242.529-.03-.205l.46-1.129c.217-.143.649.062.526-.164-.037-.068-.48-.236-.519-.256-.546-.276-1.083-.57-1.62-.861-.847-.459-1.919.489-1.368,1.368,1.26,2.011,2.53,4.257,2.571,6.697.038,2.249-1.063,4.214-2.331,5.994-.557.782.36,1.608,1.129,1.469.466-.084.98-.101,1.436-.216.145-.013.29-.017.435-.015.436.017.292-.365-.432-1.147-.087,0-.526.43-.598.482-.42.305-.865.576-1.305.851-.766.48-.544,1.989.505,1.863,1.008-.121,2.148-.33,3.164-.178.187.028.537.191.46.059-.1-.173-.169.344-.263.533-.297.594.048,1.612.863,1.505,4.011-.528,8.045-.785,12.089-.538,4.42.271,8.769,1.123,13.069,2.15.868.207,1.536-.691,1.129-1.469-1.293-2.473-2.455-5.148-2.448-7.989.007-2.661,1.121-5.066,2.487-7.293.675-1.1-1.054-2.106-1.727-1.009h0Z"/>
      <path d="M430.131,92.444c-1.159,2.923-1.321,5.983-.302,8.973,1.144,3.358,3.195,6.356,5.024,9.365l1.368-1.368c-.788-.487-2.886-2.274-3.778-1.084-.952,1.27,1.738,2.903,2.451,3.502l1.212-1.571c-.826-.526-2.971-2.424-4.059-1.561-1.343,1.065,1.047,2.78,1.71,3.389l.973-1.671c-3.204-1.186-6.505-2.213-9.932-2.454-2.869-.202-5.696.287-8.411,1.199l1.23.698c-.998-3.939-4.936-2.399-7.587-1.159l1.212,1.571c.627-.785,1.888-2.205.874-3.192-1.021-.994-3.102.175-4.106.596l.973,1.671c.761-.635,2.709-1.885,2.156-3.144-.592-1.349-2.642-.367-3.554-.033l1.129,1.469c1.245-2.779,2.125-5.716,1.894-8.793-.253-3.367-1.618-6.487-3.192-9.431l-1.368,1.368c.705.481,2.289,2.025,3.293,1.716.667-.205.864-.875.598-1.469-.398-.886-1.888-1.691-2.587-2.249l-1.212,1.571c.797.557,1.935,1.684,2.944,1.885.573.114,1.021-.163,1.23-.698.42-1.072-1.835-2.401-2.427-2.891l-.973,1.671c4.218,1.151,8.539,2.034,12.925,2.106,4.192.069,8.334-.643,12.378-1.698,1.244-.325.717-2.254-.532-1.929-3.881,1.012-7.823,1.693-11.846,1.627-4.214-.069-8.341-.929-12.393-2.035-.907-.248-1.772,1.01-.973,1.671.506.419,1.013.835,1.508,1.266.125.109.263.273.403.357.077.046.276.346.108.077l-.101-.771-.006.015,1.23-.698c.282.056.036.052-.073-.058-.127-.127-.391-.251-.537-.348-.626-.414-1.24-.848-1.856-1.278-.92-.643-2.102.86-1.212,1.571.58.463,1.163.924,1.732,1.402.155.13.305.299.474.407.123.079.195.319.068.036l.598-1.469c.824-.254.734.237.391-.089-.128-.122-.322-.204-.47-.3-.564-.366-1.118-.747-1.673-1.126-.872-.594-1.81.542-1.368,1.368,1.397,2.612,2.693,5.426,2.919,8.421.205,2.719-.517,5.32-1.621,7.784-.317.707.223,1.801,1.129,1.469.441-.162.884-.331,1.337-.457.153-.046.308-.085.464-.119.502-.05.299-.448-.609-1.192-.16.061-.448.477-.579.6-.373.349-.768.675-1.161,1.002-.741.617.056,2.056.973,1.671.48-.201.96-.404,1.451-.578.226-.08.726-.134.91-.279.324-.255-.012-.958-.437-.801-.144.053-.538.787-.637.91-.709.888.149,2.068,1.212,1.571,1.042-.487,2.338-1.19,3.528-1.186.762.003.947.462,1.122,1.15.127.503.725.868,1.23.698,2.564-.861,5.17-1.318,7.88-1.127,3.236.228,6.378,1.263,9.4,2.382.944.35,1.684-1.019.973-1.671-.418-.384-.842-.766-1.24-1.172-.059-.06-.221-.296-.302-.315-.253-.059.06-.531.024.297l-.495.863c-.983.598-.668-.132-.415.207.1.134.405.227.547.31.612.357,1.209.741,1.806,1.122.941.6,2.092-.832,1.212-1.571-.533-.447-1.068-.893-1.584-1.359-.145-.131-.287-.295-.443-.41-.204-.15-.223-.46-.088.021l-.257.973.017-.021-.707.293c-.345.003.304.229.425.297.522.295,1.031.614,1.541.929.851.526,1.884-.52,1.368-1.368-1.675-2.756-3.588-5.507-4.704-8.553-1.022-2.792-.908-5.49.184-8.244.474-1.197-1.459-1.716-1.929-.532h0Z"/>
      <path d="M424.141,91.246c.502,5.838,1.437,11.567,2.826,17.26.305,1.25,2.234.72,1.929-.532-1.347-5.52-2.268-11.067-2.755-16.728-.109-1.273-2.11-1.284-2,0h0Z"/>
      <path d="M415.909,90.215c0,5.676,0,11.351,0,17.027,0,1.287,2,1.289,2,0,0-5.676,0-11.351,0-17.027,0-1.287-2-1.289-2,0h0Z"/>
      <path d="M431.683,98.071c-7.803,0-15.606,0-23.41,0-1.287,0-1.289,2,0,2,7.803,0,15.606,0,23.41,0,1.287,0,1.289-2,0-2h0Z"/>
      <path d="M482.483,102.557c-2.261-.552-5.431-1.123-7.377.576-1.832,1.6-1.216,4.109-.337,6.041l1.368-1.368c-2.118-1.516-4.221-3.053-6.305-4.615-.564-.423-1.455-1.418-2.204-1.533-.476-.073-.853.058-1.129.46-.495.72.272,1.374.729,1.829.776.771,2.272-.277,1.571-1.212-1.329-1.771-2.654-3.57-3.747-5.5-.257-.454-.515-.916-.696-1.407-.026-.069-.09-.45-.132-.472.163.085-.278.642-.532.716.753-.22.936-1.11.441-1.671-1.796-2.036-3.985-4.743-6.815-5.296-.474-.093-.954-.114-1.434-.065-.64.065-1.209-.162-1.885-.236-1.841-.2-3.66.03-5.486-.379l.598,1.469c1.173-2.021.283-3.602-1.501-4.84l.46,1.129c2.163-5.613-2.133-11.074-5.534-15.13-.835-.996-2.203.424-1.414,1.414l-.14-1.167.598-.46c.385-.129.563.099.163-.106-.237-.121-.291-.118-.615-.261-.902-.397-1.798-.806-2.695-1.211-3.546-1.601-7.101-3.18-10.671-4.727-1.169-.507-2.188,1.216-1.009,1.727,4.159,1.804,8.293,3.664,12.429,5.52.709.318,1.468.763,2.226.953,1.074.268,1.861-.764,1.129-1.683l-1.414,1.414c2.947,3.515,6.902,8.3,5.019,13.185-.167.432.119.893.46,1.129.887.616,1.363,1.106.783,2.104-.311.536-.039,1.326.598,1.469,1.633.365,3.243.34,4.904.383.735.019,1.378.157,2.087.3.532.108.962-.046,1.497-.027,2.545.093,4.739,3.091,6.25,4.804l.441-1.671c-3.271.955,3.276,8.755,3.911,9.601l1.571-1.212c-.319-.317-.586-.887-.319-.17l-.101.771.004-.005-1.129.46c-.375-.057-.159-.127-.043.015.092.114.279.201.398.289.525.386,1.043.781,1.565,1.172,2.021,1.513,4.06,3.002,6.113,4.471.902.645,1.735-.563,1.368-1.368-.499-1.097-1.136-2.874.143-3.684,1.47-.931,3.771-.371,5.312.005,1.25.305,1.783-1.623.532-1.929h0Z"/>
      <path d="M407.036,64.002c-5.792,1.297-11.852,2.627-17.205,5.283-2.223,1.103-5.23,2.984-4.601,5.899l.257-.973c-2.365,2.196-4.525,4.765-5.422,7.927-.752,2.652-.48,5.397.01,8.068l.46-1.129c-4.659,2.392-8.51,6.096-12.831,9.013l1.368.359c-1.15-1.859-2.525-3.818-4.65-4.625-2.4-.911-4.942-.008-7.131,1.047l1.505.863c-.084-1.867-1.169-3.078-3.115-2.621-1.157.271-2.259.897-3.286,1.471-1.861,1.04-3.657,2.196-5.457,3.336l1.212,1.571c.556-.558,1.326-1.324,1.117-2.198-.201-.843-1.043-1.051-1.8-1.035-1.234.026-2.501.381-3.694.663-2.387.565-4.758,1.205-7.131,1.826l.771,1.828c.903-.573,6.458-3.372,4.763-5.147-.622-.651-1.721-.33-2.469-.14-2.02.515-3.983,1.304-5.927,2.047l.771,1.828c1.143-.576,2.286-1.153,3.44-1.708.311-.15.636-.282.941-.442.139-.073.399-.071.062-.079l-.863-.495.005.008v-1.009c.271-.455.082-.143-.245.062-.454.285-.92.553-1.383.823-1.614.941-3.243,1.857-4.871,2.774-1.121.632-.114,2.36,1.009,1.727,1.778-1.001,3.558-2,5.316-3.035.582-.343,1.535-.73,1.9-1.342.181-.303.183-.707,0-1.009-.519-.857-1.403-.395-2.077-.089-1.435.651-2.837,1.379-4.244,2.088-.996.502-.297,2.236.771,1.828,1.535-.587,3.074-1.169,4.64-1.669.458-.146.919-.289,1.386-.404.152-.037.713-.069.804-.146-.081.069-.813-1.117-.599-1.107-.002,0,.197-.123-.078.046-.256.157-.489.437-.731.623-1.058.815-2.204,1.526-3.331,2.24-.947.6-.349,2.121.771,1.828,2.992-.783,5.985-1.66,9.025-2.241.33-.063.661-.129.996-.158.255-.022.598-.036.592-.009-.051.226-.68-.914-.461-.859-.165-.041.254-.092-.036.05-.129.063-.4.463-.554.618-.787.79.234,2.19,1.212,1.571,2.335-1.48,4.689-3.152,7.239-4.25.426-.183,1.146-.444,1.46-.401.097.013,0-.084.022-.009.077.258.116.477.128.748.036.794.813,1.197,1.505.863,1.663-.801,3.75-1.632,5.577-.849,1.58.677,2.603,2.31,3.468,3.709.27.437.91.668,1.368.359,4.321-2.917,8.171-6.621,12.831-9.013.418-.214.537-.707.46-1.129-.504-2.748-.7-5.576.41-8.21.665-1.577,1.701-2.977,2.858-4.227.542-.585,1.546-1.2,1.837-1.934.158-.398.006-.681.023-.977.05-.892,1.136-1.798,2.022-2.37,1.93-1.245,4.132-2.057,6.297-2.787,3.963-1.336,8.04-2.326,12.118-3.24,1.255-.281.724-2.21-.532-1.929h0Z"/>
      <path d="M279.032,87.82c-2.13-3.713-3.287-7.721-3.254-12.015.044-5.655,1.683-11.227,3.424-16.559.298-.912-1.034-1.756-1.671-.973-.716.88-1.432,1.765-2.203,2.597-.211.227-.593.487-.753.75-.231.38,1.163.763,1.121.819.356-.474.51-1.458.757-2.013.598-1.345,1.247-2.667,1.896-3.987.465-.946-.819-2.158-1.571-1.212-.825,1.039-1.658,2.077-2.569,3.043-.223.236-1.361,1.237-1.36,1.241-.012-.085.688.363.647.383-.002.001-.049-.125-.009-.241.102-.296.08-.729.145-1.044.266-1.291.67-2.553,1.075-3.805.293-.907-.735-1.464-1.469-1.129-5.739,2.616-11.923,4.272-18.263,3.451-7.148-.926-13.683-4.522-19.673-8.332-.871-.554-1.836.524-1.368,1.368.789,1.422,1.582,2.847,2.289,4.313.182.376.314.801.512,1.167.044.082.147.323.094.277-.303-.262,1.088-1.211,1.223-.779-.095-.303-1.371-1.35-1.703-1.727-1.178-1.336-2.3-2.723-3.418-4.109-.717-.889-2.161.259-1.571,1.212.985,1.588,1.972,3.177,2.904,4.797.286.497.728,1.764,1.038,2.009-.464-.367,1.441-.548,1.258-1.02.008.02-.058-.016-.152-.144-.238-.328-.607-.62-.882-.922-1.126-1.239-2.192-2.535-3.26-3.824-.617-.745-2.05.056-1.671.973,2.131,5.163,4.505,10.826,4.583,16.505.052,3.751-1.429,6.779-4.332,9.127-.477.385-.344,1.314.202,1.571.986.464,1.972.935,2.917,1.478.315.181,1.083.936,1.407.978.206.027.371-.745.269-.818-.019-.014-.579.095-.628.1-.799.077-1.631-.009-2.428-.068-1.134-.083-1.344,1.688-.266,1.964,1.402.359,2.806.713,4.21,1.069.366.093.733.183,1.097.282.154.042.674.259.304.062l-.495-.863v.006c.334-.333.667-.667,1-1-.368.046-1.66-.26-2.321-.372l-.532,1.929c13.132,1.876,26.279,3.634,39.447,5.237v-2c-.717-.062-1.759-.349-2.474-.118-.669.216-1.038,1.151-.441,1.671.34.296.735.335,1.16.411,1.043.187,2.091.347,3.137.517l.266-1.964c-.964-.041-3.769-.456-3.743,1.206.025,1.56,3.245,2.012,4.271,2.302l-.698-1.23c-1.414,3.857-1.246,7.941-.265,11.882,1.586,6.377,4.722,12.38,7.78,18.149l1.571-1.212c-1.175-1.35-2.329-2.764-3.637-3.991-.605-.567-1.691-1.323-2.301-.269-.467.808.317,1.904.698,2.585,1.12,1.998,2.369,3.928,3.594,5.863l1.571-1.212c-1.409-1.537-2.83-3.122-4.457-4.436-.723-.584-1.763-1.436-2.753-.992-1.019.457-.872,1.692-.667,2.587.437,1.905,1.345,3.742,2.147,5.511l1.368-1.368c-6.026-3.397-12.616-6.383-19.648-6.563-6.573-.169-12.723,2.338-18.302,5.612l1.469,1.129c.495-1.768,1.035-3.578,1.214-5.413.083-.847.053-2.032-.948-2.327-.9-.266-1.684.51-2.23,1.114-1.303,1.439-2.365,3.123-3.425,4.741l1.828.771c.775-1.859,1.582-3.721,2.21-5.636.242-.736.689-1.867.032-2.521-.73-.725-1.605-.061-2.129.527-1.127,1.265-2.054,2.741-3,4.14l1.828.771c1.202-7.638,1.939-15.415.841-23.111-.971-6.805-3.573-13.155-7.002-19.076-.645-1.113-2.374-.108-1.727,1.009,3.293,5.686,5.773,11.742,6.752,18.267,1.112,7.414.365,15.02-.793,22.378-.173,1.101,1.164,1.752,1.828.771.739-1.094,1.471-2.203,2.285-3.244.155-.198.602-.553.683-.794.044-.132.089.002.072-.062-.059-.213-1.448-.457-1.304-.58-.195.167-.512,1.63-.667,2.047-.571,1.543-1.205,3.063-1.838,4.582-.454,1.09,1.239,1.669,1.828.771.802-1.225,1.606-2.461,2.51-3.614.271-.345.549-.698.865-1.003.023-.022.344-.288.347-.32.006-.068.011,0,.01-.005l-.794-.323c-.047-.116-.052-.111-.017.015.011-.01-.004.195-.011.266-.037.407-.081.8-.157,1.203-.26,1.393-.64,2.763-1.021,4.126-.235.84.718,1.57,1.469,1.129,5.287-3.103,11.061-5.499,17.292-5.339,6.672.172,12.926,3.071,18.639,6.29.931.525,1.764-.494,1.368-1.368-.642-1.416-1.293-2.848-1.752-4.337-.1-.326-.128-.832-.277-1.126-.078-.153.051-.156-.017-.161.077.005-.629.484-.623.408-.001.014,1.465,1.1,1.719,1.334,1.244,1.146,2.397,2.391,3.539,3.636.764.833,2.179-.25,1.571-1.212-.975-1.541-1.951-3.082-2.886-4.648-.294-.492-.586-.985-.86-1.489-.102-.187-.293-.708-.398-.786-.017-.047-.032-.095-.043-.144l-1.314.999c.003.074.129.059.164.124.167.306.624.604.865.856,1.027,1.075,2.001,2.203,2.978,3.324.771.886,2.084-.244,1.571-1.212-2.941-5.55-5.935-11.286-7.511-17.404-.954-3.703-1.134-7.456.198-11.087.187-.51-.212-1.092-.698-1.23-.75-.213-1.503-.424-2.24-.682-.205-.072-.431-.208-.64-.244-.579-.1.221-.605.082.505l-.293.707c-.171.201-.328.031-.088.119.092.034.413-.019.486-.021.544-.012,1.088.012,1.631.035,1.104.047,1.392-1.781.266-1.964-.928-.151-1.857-.299-2.784-.457-.229-.039-.479-.119-.711-.125-.349-.01-.449-.293.08.168l-.441,1.671c-.396.128.203.047.399.061.515.036,1.029.084,1.543.129,1.297.112,1.251-1.848,0-2-12.991-1.581-25.96-3.315-38.916-5.165-1.248-.178-1.812,1.712-.532,1.929.843.143,1.989.55,2.853.443.514-.064,1.032-.407,1-1-.049-.909-.905-1.036-1.607-1.219-1.656-.431-3.319-.84-4.977-1.264l-.266,1.964c1.187.087,4.748.594,4.745-1.456-.001-.776-.654-1.322-1.225-1.742-1.233-.905-2.671-1.552-4.048-2.199l.202,1.571c3.134-2.534,4.853-5.985,4.918-10.024.098-6.036-2.395-12.08-4.655-17.554l-1.671.973c1.237,1.493,2.456,3.03,3.814,4.418.593.607,1.619,1.562,2.387.588.608-.771-.156-1.89-.533-2.589-1.058-1.959-2.259-3.846-3.432-5.737l-1.571,1.212c1.375,1.705,2.74,3.443,4.255,5.029.588.615,1.523,1.709,2.484,1.178.92-.509.496-1.631.188-2.371-.778-1.865-1.803-3.636-2.782-5.4l-1.368,1.368c6.305,4.01,13.162,7.676,20.682,8.605,6.712.829,13.204-.958,19.273-3.724l-1.469-1.129c-.51,1.577-1.061,3.196-1.247,4.852-.093.832-.058,1.883.838,2.266.861.368,1.693-.257,2.317-.792,1.33-1.142,2.422-2.592,3.506-3.957l-1.571-1.212c-.841,1.711-1.695,3.424-2.412,5.193-.28.691-.783,1.716-.342,2.444,1.3,2.147,4.496-2.663,5.078-3.379l-1.671-.973c-1.826,5.593-3.516,11.465-3.496,17.401.015,4.528,1.282,8.799,3.528,12.714.64,1.116,2.369.11,1.727-1.009h0Z"/>
      <path d="M269.368,65.229c-1.548,2.524-2.752,5.293-2.76,8.302-.008,3.198,1.264,6.213,2.721,8.999l1.129-1.469c-4.346-1.039-8.749-1.891-13.214-2.197-4.171-.285-8.336-.032-12.475.513l.863,1.505c.53-1.059.828-2.385-.325-3.154-1.287-.859-3.354-.439-4.763-.27l.505,1.863c.885-.554,3.266-1.685,2.719-3.109-.524-1.364-2.79-.683-3.796-.502l1.129,1.469c1.471-2.064,2.649-4.409,2.604-7.003-.048-2.802-1.39-5.386-2.844-7.706l-1.368,1.368c.764.414,2.682,1.907,3.632,1.281.345-.227.617-.704.46-1.129-.403-1.087-2.076-1.856-2.957-2.464l-1.009,1.727c.825.458,3.147,2.28,4.129,1.27,1.203-1.237-1.554-2.767-2.269-3.309l-.771,1.828c9.688,1.432,19.341,2.05,29.132,1.789,1.285-.034,1.29-2.034,0-2-9.607.256-19.093-.312-28.6-1.718-1.14-.168-1.696,1.126-.771,1.828.425.323.853.643,1.263.985.27.225.488.643.344.155l.257-.973-.018.02.707-.293c.298-.004.05.03-.024-.048-.117-.124-.392-.193-.543-.27-.617-.315-1.223-.655-1.828-.991-1.139-.633-2.058,1.002-1.009,1.727.56.387,1.125.769,1.672,1.175.112.083.267.249.396.298.225.086.242.529-.03-.205l.46-1.129c.217-.143.649.062.526-.164-.037-.068-.48-.236-.519-.256-.546-.276-1.083-.57-1.62-.861-.847-.459-1.919.489-1.368,1.368,1.26,2.011,2.53,4.257,2.571,6.697.038,2.249-1.063,4.214-2.331,5.994-.557.782.36,1.608,1.129,1.469.466-.084.98-.101,1.436-.216.145-.013.29-.017.435-.015.436.017.292-.365-.432-1.147-.087,0-.526.43-.598.482-.42.305-.865.576-1.305.851-.766.48-.544,1.989.505,1.863,1.008-.121,2.148-.33,3.164-.178.187.028.537.191.46.059-.1-.173-.169.344-.263.533-.297.594.048,1.612.863,1.505,4.011-.528,8.045-.785,12.089-.538,4.42.271,8.769,1.123,13.069,2.15.868.207,1.536-.691,1.129-1.469-1.293-2.473-2.455-5.148-2.448-7.989.007-2.661,1.121-5.066,2.487-7.293.675-1.1-1.054-2.106-1.727-1.009h0Z"/>
      <path d="M267.892,95.426c-1.159,2.923-1.321,5.983-.302,8.973,1.144,3.358,3.195,6.356,5.024,9.365l1.368-1.368c-.788-.487-2.886-2.274-3.778-1.084-.952,1.27,1.738,2.903,2.451,3.502l1.212-1.571c-.826-.526-2.971-2.424-4.059-1.561-1.343,1.065,1.047,2.78,1.71,3.389l.973-1.671c-3.204-1.186-6.505-2.213-9.932-2.454-2.869-.202-5.696.287-8.411,1.199l1.23.698c-.998-3.939-4.936-2.399-7.587-1.159l1.212,1.571c.627-.785,1.888-2.205.874-3.192-1.021-.994-3.102.175-4.106.596l.973,1.671c.761-.635,2.709-1.885,2.156-3.144-.592-1.349-2.642-.367-3.554-.033l1.129,1.469c1.245-2.779,2.125-5.716,1.894-8.793-.253-3.367-1.618-6.487-3.192-9.431l-1.368,1.368c.705.481,2.289,2.025,3.293,1.716.667-.205.864-.875.598-1.469-.398-.886-1.888-1.691-2.587-2.249l-1.212,1.571c.797.557,1.935,1.684,2.944,1.885.573.114,1.021-.163,1.23-.698.42-1.072-1.835-2.401-2.427-2.891l-.973,1.671c4.218,1.151,8.539,2.034,12.925,2.106,4.192.069,8.334-.643,12.378-1.698,1.244-.325.717-2.254-.532-1.929-3.881,1.012-7.823,1.693-11.846,1.627-4.214-.069-8.341-.929-12.393-2.035-.907-.248-1.772,1.01-.973,1.671.506.419,1.013.835,1.508,1.266.125.109.263.273.403.357.077.046.276.346.108.077l-.101-.771-.006.015,1.23-.698c.282.056.036.052-.073-.058-.127-.127-.391-.251-.537-.348-.626-.414-1.24-.848-1.856-1.278-.92-.643-2.102.86-1.212,1.571.58.463,1.163.924,1.732,1.402.155.13.305.299.474.407.123.079.195.319.068.036l.598-1.469c.824-.254.734.237.391-.089-.128-.122-.322-.204-.47-.3-.564-.366-1.118-.747-1.673-1.126-.872-.594-1.81.542-1.368,1.368,1.397,2.612,2.693,5.426,2.919,8.421.205,2.719-.517,5.32-1.621,7.784-.317.707.223,1.801,1.129,1.469.441-.162.884-.331,1.337-.457.153-.046.308-.085.464-.119.502-.05.299-.448-.609-1.192-.16.061-.448.477-.579.6-.373.349-.768.675-1.161,1.002-.741.617.056,2.056.973,1.671.48-.201.96-.404,1.451-.578.226-.08.726-.134.91-.279.324-.255-.012-.958-.437-.801-.144.053-.538.787-.637.91-.709.888.149,2.068,1.212,1.571,1.042-.487,2.338-1.19,3.528-1.186.762.003.947.462,1.122,1.15.127.503.725.868,1.23.698,2.564-.861,5.17-1.318,7.88-1.127,3.236.228,6.378,1.263,9.4,2.382.944.35,1.684-1.019.973-1.671-.418-.384-.842-.766-1.24-1.172-.059-.06-.221-.296-.302-.315-.253-.059.06-.531.024.297l-.495.863c-.983.598-.668-.132-.415.207.1.134.405.227.547.31.612.357,1.209.741,1.806,1.122.941.6,2.092-.832,1.212-1.571-.533-.447-1.068-.893-1.584-1.359-.145-.131-.287-.295-.443-.41-.204-.15-.223-.46-.088.021l-.257.973.017-.021-.707.293c-.345.003.304.229.425.297.522.295,1.031.614,1.541.929.851.526,1.884-.52,1.368-1.368-1.675-2.756-3.588-5.507-4.704-8.553-1.022-2.792-.908-5.49.184-8.244.474-1.197-1.459-1.716-1.929-.532h0Z"/>
      <path d="M261.903,94.229c.502,5.838,1.437,11.567,2.826,17.26.305,1.25,2.234.72,1.929-.532-1.347-5.52-2.268-11.067-2.755-16.728-.109-1.273-2.11-1.284-2,0h0Z"/>
      <path d="M253.67,93.198c0,5.676,0,11.351,0,17.027,0,1.287,2,1.289,2,0,0-5.676,0-11.351,0-17.027,0-1.287-2-1.289-2,0h0Z"/>
      <path d="M269.444,101.054h-23.41c-1.287,0-1.289,2,0,2h23.41c1.287,0,1.289-2,0-2h0Z"/>
      <path d="M335.871,97.06c-4.176.303-8.049,2.508-10.675,5.742-2.085,2.569-3.693,6.118-2.213,9.357l1.368-1.368c-3.112-1.894-6.15-3.961-9.329-5.741-.621-.348-1.412-.747-1.967-.04-.566.722.072,1.414.568,1.922.913.933,2.238-.446,1.414-1.414-1.511-1.776-3.013-3.579-4.302-5.526-.309-.467-.619-.942-.867-1.445-.078-.158-.041-.224-.145-.324-.02-.019-.015-.122-.038-.132.276.118-1.036,1.212-.423.866.568-.321.646-1.116.202-1.571-2.418-2.48-5.266-5.204-8.93-5.384-.669-.033-1.305.099-1.939-.009-.723-.123-1.424-.233-2.16-.262-2.073-.081-4.117.021-6.175-.32l.441,1.671c.731-.683,1.379-1.573,1.116-2.629-.312-1.249-1.669-1.923-2.73-2.414l.359,1.368c3.539-5.911-2.639-11.711-6.679-15.369l-1.212,1.571c.115.053.185.125-.106-.109l.202-1.571h-.001c.257-.033.514-.066.771-.1-1.467-.267-3.003-1.109-4.397-1.615-4.55-1.654-9.125-3.239-13.711-4.794-1.222-.414-1.746,1.517-.532,1.929,4.73,1.604,9.449,3.24,14.141,4.951,1.037.378,2.073.761,3.107,1.146.512.191,1.094.521,1.631.21.51-.295.713-1.16.202-1.571-.133-.107-.174-.147-.298-.204-.959-.44-2.117.751-1.212,1.571,3.227,2.922,9.306,8.036,6.366,12.946-.258.431-.129,1.142.359,1.368.41.19,1.602.589,1.745,1.089.084.296-.273.568-.535.813-.512.479-.306,1.548.441,1.671,1.847.305,3.68.368,5.549.375.741.003,1.503-.014,2.238.096s1.204.293,1.959.218c3.551-.352,6.295,2.434,8.576,4.772l.202-1.571c-1.138.643-.23,2.159.22,2.924,1.434,2.435,3.326,4.634,5.15,6.778l1.414-1.414c-.088-.09-.276-.225-.326-.345-.023-.054.189.396.093.71l-.46.598c.019-.013-.674.176-.641.116-.051.09-.208-.166-.001.011.141.121.367.203.529.298.637.371,1.261.766,1.887,1.155,2.403,1.494,4.806,2.988,7.223,4.46.923.562,1.757-.517,1.368-1.368-1.144-2.503.698-5.585,2.305-7.412,2.255-2.563,5.409-4.427,8.856-4.676,1.276-.092,1.286-2.093,0-2h0Z"/>
      <path d="M245.293,66.725c-6.432,1.466-13.17,2.972-19.104,5.958-2.453,1.234-5.813,3.334-5.121,6.564l.257-.973c-2.632,2.484-5.025,5.386-6.014,8.934-.832,2.987-.532,6.075.011,9.082l.46-1.129c-5.206,2.715-9.484,6.919-14.301,10.226l1.368.359c-1.259-2.073-2.764-4.271-5.115-5.184-2.641-1.026-5.456-.009-7.859,1.173l1.505.863c-.087-2.045-1.251-3.357-3.378-2.832-1.287.318-2.511,1.03-3.652,1.682-2.05,1.172-4.031,2.467-6.015,3.747l1.212,1.571c.587-.598,1.439-1.44,1.215-2.373-.217-.907-1.157-1.094-1.961-1.062-1.387.055-2.791.447-4.132.771-2.624.636-5.228,1.35-7.837,2.044l.771,1.828c1.565-1.01,3.197-2.014,4.598-3.251.646-.57,1.487-1.553.682-2.382-.689-.71-1.944-.305-2.758-.086-2.209.595-4.354,1.461-6.482,2.289l.771,1.828c1.281-.657,2.562-1.315,3.855-1.948.337-.165.673-.336,1.017-.487.21-.092.452-.107.137-.114l-.707-.293.007.007-.156-1.212c.065-.15.239-.203.13-.168-.134.042-.287.189-.406.265-.502.321-1.016.623-1.528.927-1.816,1.078-3.648,2.128-5.48,3.178-1.116.64-.11,2.369,1.009,1.727,1.98-1.135,3.962-2.267,5.92-3.441.551-.33,1.801-.83,2.082-1.48.188-.436.169-.849-.156-1.212-.591-.658-1.537-.067-2.147.22-1.547.727-3.065,1.521-4.585,2.301-.99.508-.296,2.243.771,1.828,1.754-.683,3.514-1.362,5.308-1.937.516-.165,1.035-.327,1.562-.452.158-.038.735-.062.818-.133-.249.216-1.065-1.149-.602-1.077-.056-.009.113-.049-.055.041-.289.157-.581.54-.846.75-1.191.942-2.489,1.761-3.764,2.583-.936.604-.355,2.127.771,1.828,3.376-.899,6.757-1.919,10.194-2.568.367-.069.737-.141,1.11-.167.115-.008.383.034.483-.014.145-.07.035.098-.032-.042-.078-.163-.222-.409-.32-.57-.143-.235.233-.255-.031-.088-.211.133-.436.524-.634.726-.776.791.234,2.201,1.212,1.571,2.626-1.694,5.277-3.618,8.159-4.864.465-.201,1.284-.536,1.66-.417.016.005.078.076.031.021-.095-.112.076.136.082.154.058.196.092.528.103.782.034.79.815,1.203,1.505.863,1.884-.927,4.238-1.875,6.31-.97,1.802.787,2.951,2.654,3.928,4.264.265.437.916.669,1.368.359,4.818-3.308,9.094-7.511,14.301-10.226.418-.218.536-.704.46-1.129-.565-3.127-.787-6.352.441-9.357.721-1.764,1.852-3.349,3.119-4.76.599-.667,1.677-1.366,2.085-2.156.217-.42.057-.775.065-1.112.027-1.121,1.229-2.15,2.258-2.833,2.141-1.421,4.602-2.353,7.018-3.184,4.44-1.527,9.013-2.661,13.588-3.703,1.254-.286.723-2.215-.532-1.929h0Z"/>
    </g>
  </g>
</svg>